<svg width="60" height="60" viewBox="0 0 60 60" fill="none" xmlns="http://www.w3.org/2000/svg">
<path d="M31.3725 5.64996C30.7199 5.2176 29.9526 4.99122 29.1698 5.00013C28.3871 5.00905 27.6251 5.25285 26.9825 5.69996L7.32 19.4C6.27 20.13 5.645 21.325 5.645 22.605V37.3625C5.645 38.675 6.305 39.8975 7.4 40.62L27.385 53.8325C28.0239 54.2549 28.7729 54.4801 29.5388 54.4801C30.3046 54.4801 31.0536 54.2549 31.6925 53.8325L52.075 40.3675C53.17 39.6425 53.8275 38.4175 53.8275 37.1075V22.6075C53.8275 21.2975 53.17 20.075 52.0775 19.35L31.3725 5.64996ZM46.5975 21.6325L39.0625 26.69L31.9975 21.5525L31.9525 11.4475L46.595 21.6325H46.5975ZM26.8425 11.4575V21.35L19.6 26.41L12.3825 21.5675L26.8425 11.4575ZM10.4 26.44L15.075 29.5725L10.4 32.8425V26.4425V26.44ZM26.9625 47.5225L12.385 37.75L19.6675 32.6575L26.9675 37.5525V47.5275L26.9625 47.5225ZM24.2 29.49L28.92 26.19L34.42 29.8025L29.545 33.0775L24.2 29.49ZM32.1175 47.5225V37.5475L39.0925 32.8725L46.6 37.81L32.1175 47.5225ZM48.68 33.01L43.73 29.76L48.68 26.4375V33.0125V33.01Z" fill="#FAFAFA"/>
</svg>
