<svg width="60" height="60" viewBox="0 0 60 60" fill="none" xmlns="http://www.w3.org/2000/svg">
<path d="M39.2578 52.4766C40.8984 52.4766 40.6641 54.4688 40.6641 54.4688H19.3359C19.3359 54.4688 19.1016 52.4766 20.7422 52.4766C22.2656 52.4766 22.6172 51.7735 22.6172 51.0703L22.5 45.211C14.1797 47.086 12.4219 41.9297 12.4219 41.9297C11.0156 38.4141 9.14061 37.5938 9.14061 37.5938C6.32811 35.7188 9.2578 35.7188 9.2578 35.7188C12.3047 35.9532 13.9453 38.7657 13.9453 38.7657C16.5234 43.336 20.8594 42.0469 22.6172 41.3438C22.8516 39.3516 23.6719 38.0625 24.4922 37.2422C17.8125 36.5391 10.8984 33.961 10.8984 22.4766C10.8984 19.1953 12.0703 16.5 13.9453 14.3907C13.5937 13.6875 12.6562 10.6407 14.2969 6.53909C14.2969 6.53909 16.7578 5.71878 22.5 9.58597C27.4219 8.17972 32.5781 8.17972 37.5 9.58597C43.2422 5.71878 45.7031 6.53909 45.7031 6.53909C47.3437 10.6407 46.4062 13.6875 46.0547 14.3907C47.9297 16.5 49.1016 19.1953 49.1016 22.4766C49.1016 33.961 42.0703 36.5391 35.3906 37.2422C36.5625 38.1797 37.5 40.0547 37.5 42.8672L37.3828 51.0703C37.3828 51.7735 37.7344 52.4766 39.2578 52.4766Z" fill="#FAFAFA"/>
</svg>
