<svg width="78" height="78" viewBox="0 0 78 78" fill="none" xmlns="http://www.w3.org/2000/svg">
<path d="M4.875 4.875V73.125H73.125V4.875H4.875ZM41.4375 57.8906C41.4375 64.5343 37.5131 67.7732 31.8322 67.7732C26.7013 67.7732 23.723 65.1163 22.2117 61.9095L27.4341 58.7483C28.4411 60.5353 29.2058 62.0466 31.4041 62.0466C33.2323 62.0466 34.7344 61.2224 34.7344 58.0155V36.5625H41.4375V57.8906ZM56.5729 67.6208C50.6177 67.6208 46.7695 64.9335 44.8911 61.2224L50.1211 58.1953C51.4922 60.4409 53.2822 61.9369 56.4434 61.9369C59.1002 61.9369 60.6435 60.7608 60.6435 58.9281C60.6435 56.7298 59.0545 55.9513 56.1219 54.6625L54.5193 53.9739C49.8911 52.0056 46.8229 49.5315 46.8229 44.3077C46.8229 39.4982 50.4867 35.9851 56.2133 35.9851C60.2916 35.9851 63.2211 37.2526 65.3311 40.9637L60.3281 44.1797C59.2282 42.2099 58.043 41.4375 56.2057 41.4375C54.3273 41.4375 53.136 42.6288 53.136 44.1797C53.136 46.1038 54.3273 46.8823 57.0756 48.0736L58.6782 48.7607C64.1306 51.0976 67.2003 53.4833 67.2003 58.8397C67.2019 64.6136 62.6666 67.6208 56.5729 67.6208Z" fill="#0072F5"/>
</svg>
