<svg width="60" height="60" viewBox="0 0 60 60" fill="none" xmlns="http://www.w3.org/2000/svg">
<path d="M16.6387 21.0305H6.60113C6.15565 21.0305 5.79468 21.3916 5.79468 21.837V54.0834C5.79468 54.5289 6.15565 54.8899 6.60113 54.8899H16.6387C17.0842 54.8899 17.4452 54.5289 17.4452 54.0834V21.837C17.4452 21.3916 17.0842 21.0305 16.6387 21.0305Z" fill="#FAFAFA"/>
<path d="M11.6235 5C7.97129 5 5 7.96806 5 11.6163C5 15.2661 7.97129 18.2353 11.6235 18.2353C15.2729 18.2353 18.2418 15.266 18.2418 11.6163C18.2419 7.96806 15.2729 5 11.6235 5Z" fill="#FAFAFA"/>
<path d="M42.17 20.229C38.1385 20.229 35.1584 21.9621 33.3508 23.9313V21.8369C33.3508 21.3916 32.9898 21.0305 32.5443 21.0305H22.9316C22.4861 21.0305 22.1252 21.3916 22.1252 21.8369V54.0834C22.1252 54.5288 22.4861 54.8898 22.9316 54.8898H32.9472C33.3927 54.8898 33.7537 54.5288 33.7537 54.0834V38.1288C33.7537 32.7526 35.214 30.658 38.9618 30.658C43.0434 30.658 43.3677 34.0158 43.3677 38.4055V54.0835C43.3677 54.529 43.7287 54.89 44.1742 54.89H54.1935C54.639 54.89 55 54.529 55 54.0835V36.3958C55 28.4014 53.4756 20.229 42.17 20.229Z" fill="#FAFAFA"/>
</svg>
