<svg width="109" height="56" viewBox="0 0 109 56" fill="none" xmlns="http://www.w3.org/2000/svg">
<path d="M73.6388 4L73.2981 5.77577C72.7711 9.14115 72.9619 10.104 74.4061 11.3529L75.8002 12.5065L74.356 18.9466C73.4933 22.7889 72.4349 26.0089 71.7629 27.0671C71.1863 27.9802 70.5137 29.3241 70.3688 30.0463C70.1279 30.9095 69.3104 31.7766 68.0612 32.5445C66.9576 33.1713 64.7912 34.8515 63.2565 36.2004C62.0303 37.304 61.1855 37.9809 60.7266 38.2714L59.2279 39.4568C58.8426 40.0285 58.5526 40.6585 58.3695 41.3234C58.2649 41.8095 58.3243 42.1316 58.4785 42.3682C58.6284 42.5949 58.8873 42.754 59.2415 42.8538C59.6606 42.9524 60.0922 42.9873 60.5223 42.9584C61.4945 42.8919 62.457 42.7213 63.3928 42.4499C63.7105 42.3633 63.9601 42.2815 64.1781 42.209C64.5144 41.7959 65.291 41.0144 66.6671 39.6568C70.3186 36.0549 71.7127 34.0842 70.2734 34.6155C69.742 34.8063 69.9824 34.3245 70.8952 33.362C72.8213 31.4862 73.9249 28.6521 76.2319 19.7641C78.0576 12.7472 78.0576 12.6473 79.4021 12.6473C80.0333 12.6473 81.8181 12.7563 81.8181 12.7563V4H77.7214H73.6388ZM91.0739 18.3744C90.7834 18.3744 90.3021 18.8104 90.016 19.2918C89.489 20.1547 90.1114 20.6815 98.0411 25.6319C102.75 28.6156 106.548 31.1592 106.452 31.3543C106.357 31.4954 102.51 33.9975 97.9 36.8817C89.5342 42.0684 89.489 42.118 90.2564 43.1764C91.2194 44.4255 90.2564 44.8566 101.115 38.0806L109 33.035V29.238L100.203 23.8062C95.4475 20.8269 91.3148 18.4243 91.0739 18.3744ZM18.0214 18.9058C17.7806 18.9058 13.6477 21.3583 8.8926 24.2876L0 29.7193V33.5163L8.84263 39.0437C13.7476 42.0684 17.8805 44.5705 18.0713 44.5705C18.262 44.5705 18.6481 44.1345 19.0341 43.608C19.6109 42.6952 19.125 42.3088 11.0045 37.1678C3.27 32.3129 2.4525 31.6404 3.22459 31.1139C3.706 30.7777 7.3575 28.5159 11.2996 26.0679C20.2876 20.5408 19.8062 20.9223 19.0841 19.7686C18.798 19.2918 18.312 18.8603 18.0259 18.9058H18.0214ZM57.461 19.0102C56.135 19.0011 53.2829 21.0222 44.7445 27.9938C44.3766 28.8702 44.3449 29.474 44.5129 29.8648C44.6219 30.1329 44.8217 30.3188 45.0988 30.455C45.3713 30.5913 45.7255 30.673 46.1161 30.7052C46.8927 30.7733 47.8101 30.6507 48.5504 30.5052L49.05 30.3918C49.221 30.1623 49.4456 29.9781 49.704 29.8555C50.2309 29.565 52.4426 27.5485 54.6542 25.3867C58.5466 21.4445 59.4595 19.6642 57.8746 19.0874C57.7444 19.0357 57.6054 19.0095 57.4659 19.0102H57.461ZM67.4345 21.7488C66.2676 21.7806 64.1645 23.134 60.5631 26.0089C58.7554 27.4759 57.6109 28.2663 56.9977 28.4298L54.6183 30.31C53.7234 31.945 53.5917 32.9576 53.8279 33.5163C53.8869 33.6542 53.9728 33.779 54.0804 33.8831C54.1879 33.9877 54.3151 34.07 54.4546 34.125C54.8014 34.2618 55.1714 34.3311 55.5448 34.3294C56.4358 34.3196 57.322 34.1899 58.1788 33.943C58.6251 33.8231 59.066 33.6841 59.5004 33.5255L59.6323 33.471L59.8726 33.3435C60.3271 32.7576 61.3714 31.654 62.6794 30.3825C66.8126 26.3949 68.9245 23.5609 68.4929 22.5028C68.2978 21.9895 67.9615 21.7306 67.4345 21.7488ZM56.4255 26.6538C56.0898 26.6901 55.3355 27.2715 53.9777 28.4614C52.0157 30.1961 49.8766 31.1957 49.1363 30.7504C48.9643 30.7891 48.7917 30.8256 48.6185 30.8594C47.8646 31.0093 46.9245 31.1319 46.0843 31.0638C45.6884 31.0398 45.3004 30.9428 44.9398 30.7777C44.5997 30.6223 44.3282 30.3476 44.1768 30.0054C44.0087 29.5966 44.0088 29.0882 44.1995 28.4385L41.2474 30.8638L34.5666 36.3911V45.352L56.4576 28.1072C56.4533 27.9186 56.4778 27.73 56.5301 27.5485C56.698 26.9399 56.6893 26.6311 56.4255 26.6584V26.6538ZM65.8453 29.5558C65.5134 29.5558 64.9596 30.0239 64.074 30.964C62.8701 32.2491 60.9762 33.4934 59.9729 33.7479L59.8181 33.8297C59.6535 33.8978 59.4868 33.9615 59.3189 34.0204C59.0464 34.1114 58.6921 34.2204 58.2834 34.3294C57.4659 34.5518 56.4484 34.7561 55.5399 34.7333C55.112 34.7327 54.6875 34.6499 54.2911 34.488C53.9172 34.3343 53.6177 34.0411 53.4554 33.6705C53.192 33.0394 53.2965 32.1538 53.8733 30.8959L34.5621 46.1058V51.5787H43.0459L61.04 37.4446C61.5076 36.9269 62.2118 36.2184 63.1611 35.3328C65.7041 32.9756 66.2813 32.163 66.2813 30.9591C66.2813 30.0239 66.1766 29.5514 65.8453 29.5514V29.5558ZM70.1279 38.412L68.5883 39.9473C67.7255 40.7648 66.1859 41.773 65.1319 42.2047L64.9231 42.2951L64.9095 42.318L64.8643 42.3633C64.8234 42.3954 64.8049 42.3998 64.7733 42.4134C64.3525 42.5725 63.9252 42.7137 63.4925 42.8358C62.53 43.1159 61.5403 43.2908 60.5402 43.3579C60.0677 43.3884 59.593 43.347 59.1325 43.2353C58.733 43.1475 58.3804 42.9143 58.1422 42.5813C57.9242 42.2455 57.861 41.7959 57.9836 41.2416C58.0812 40.8471 58.2256 40.4661 58.4147 40.1064L43.8952 51.5787H63.2064L65.5134 48.9354C68.6836 45.2381 70.1279 42.5949 70.1279 40.3331V38.412Z" fill="#6610F2"/>
<path d="M73.6388 4L73.2981 5.77577C72.7711 9.14115 72.9619 10.104 74.4061 11.3529L75.8002 12.5065L74.356 18.9466C73.4933 22.7889 72.4349 26.0089 71.7629 27.0671C71.1863 27.9802 70.5137 29.3241 70.3688 30.0463C70.1279 30.9095 69.3104 31.7766 68.0612 32.5445C66.9576 33.1713 64.7912 34.8515 63.2565 36.2004C62.0303 37.304 61.1855 37.9809 60.7266 38.2714L59.2279 39.4568C58.8426 40.0285 58.5526 40.6585 58.3695 41.3234C58.2649 41.8095 58.3243 42.1316 58.4785 42.3682C58.6284 42.5949 58.8873 42.754 59.2415 42.8538C59.6606 42.9524 60.0922 42.9873 60.5223 42.9584C61.4945 42.8919 62.457 42.7213 63.3928 42.4499C63.7105 42.3633 63.9601 42.2815 64.1781 42.209C64.5144 41.7959 65.291 41.0144 66.6671 39.6568C70.3186 36.0549 71.7127 34.0842 70.2734 34.6155C69.742 34.8063 69.9824 34.3245 70.8952 33.362C72.8213 31.4862 73.9249 28.6521 76.2319 19.7641C78.0576 12.7472 78.0576 12.6473 79.4021 12.6473C80.0333 12.6473 81.8181 12.7563 81.8181 12.7563V4H77.7214H73.6388ZM91.0739 18.3744C90.7834 18.3744 90.3021 18.8104 90.016 19.2918C89.489 20.1547 90.1114 20.6815 98.0411 25.6319C102.75 28.6156 106.548 31.1592 106.452 31.3543C106.357 31.4954 102.51 33.9975 97.9 36.8817C89.5342 42.0684 89.489 42.118 90.2564 43.1764C91.2194 44.4255 90.2564 44.8566 101.115 38.0806L109 33.035V29.238L100.203 23.8062C95.4475 20.8269 91.3148 18.4243 91.0739 18.3744ZM18.0214 18.9058C17.7806 18.9058 13.6477 21.3583 8.8926 24.2876L0 29.7193V33.5163L8.84263 39.0437C13.7476 42.0684 17.8805 44.5705 18.0713 44.5705C18.262 44.5705 18.6481 44.1345 19.0341 43.608C19.6109 42.6952 19.125 42.3088 11.0045 37.1678C3.27 32.3129 2.4525 31.6404 3.22459 31.1139C3.706 30.7777 7.3575 28.5159 11.2996 26.0679C20.2876 20.5408 19.8062 20.9223 19.0841 19.7686C18.798 19.2918 18.312 18.8603 18.0259 18.9058H18.0214ZM57.461 19.0102C56.135 19.0011 53.2829 21.0222 44.7445 27.9938C44.3766 28.8702 44.3449 29.474 44.5129 29.8648C44.6219 30.1329 44.8217 30.3188 45.0988 30.455C45.3713 30.5913 45.7255 30.673 46.1161 30.7052C46.8927 30.7733 47.8101 30.6507 48.5504 30.5052L49.05 30.3918C49.221 30.1623 49.4456 29.9781 49.704 29.8555C50.2309 29.565 52.4426 27.5485 54.6542 25.3867C58.5466 21.4445 59.4595 19.6642 57.8746 19.0874C57.7444 19.0357 57.6054 19.0095 57.4659 19.0102H57.461ZM67.4345 21.7488C66.2676 21.7806 64.1645 23.134 60.5631 26.0089C58.7554 27.4759 57.6109 28.2663 56.9977 28.4298L54.6183 30.31C53.7234 31.945 53.5917 32.9576 53.8279 33.5163C53.8869 33.6542 53.9728 33.779 54.0804 33.8831C54.1879 33.9877 54.3151 34.07 54.4546 34.125C54.8014 34.2618 55.1714 34.3311 55.5448 34.3294C56.4358 34.3196 57.322 34.1899 58.1788 33.943C58.6251 33.8231 59.066 33.6841 59.5004 33.5255L59.6323 33.471L59.8726 33.3435C60.3271 32.7576 61.3714 31.654 62.6794 30.3825C66.8126 26.3949 68.9245 23.5609 68.4929 22.5028C68.2978 21.9895 67.9615 21.7306 67.4345 21.7488ZM56.4255 26.6538C56.0898 26.6901 55.3355 27.2715 53.9777 28.4614C52.0157 30.1961 49.8766 31.1957 49.1363 30.7504C48.9643 30.7891 48.7917 30.8256 48.6185 30.8594C47.8646 31.0093 46.9245 31.1319 46.0843 31.0638C45.6884 31.0398 45.3004 30.9428 44.9398 30.7777C44.5997 30.6223 44.3282 30.3476 44.1768 30.0054C44.0087 29.5966 44.0088 29.0882 44.1995 28.4385L41.2474 30.8638L34.5666 36.3911V45.352L56.4576 28.1072C56.4533 27.9186 56.4778 27.73 56.5301 27.5485C56.698 26.9399 56.6893 26.6311 56.4255 26.6584V26.6538ZM65.8453 29.5558C65.5134 29.5558 64.9596 30.0239 64.074 30.964C62.8701 32.2491 60.9762 33.4934 59.9729 33.7479L59.8181 33.8297C59.6535 33.8978 59.4868 33.9615 59.3189 34.0204C59.0464 34.1114 58.6921 34.2204 58.2834 34.3294C57.4659 34.5518 56.4484 34.7561 55.5399 34.7333C55.112 34.7327 54.6875 34.6499 54.2911 34.488C53.9172 34.3343 53.6177 34.0411 53.4554 33.6705C53.192 33.0394 53.2965 32.1538 53.8733 30.8959L34.5621 46.1058V51.5787H43.0459L61.04 37.4446C61.5076 36.9269 62.2118 36.2184 63.1611 35.3328C65.7041 32.9756 66.2813 32.163 66.2813 30.9591C66.2813 30.0239 66.1766 29.5514 65.8453 29.5514V29.5558ZM70.1279 38.412L68.5883 39.9473C67.7255 40.7648 66.1859 41.773 65.1319 42.2047L64.9231 42.2951L64.9095 42.318L64.8643 42.3633C64.8234 42.3954 64.8049 42.3998 64.7733 42.4134C64.3525 42.5725 63.9252 42.7137 63.4925 42.8358C62.53 43.1159 61.5403 43.2908 60.5402 43.3579C60.0677 43.3884 59.593 43.347 59.1325 43.2353C58.733 43.1475 58.3804 42.9143 58.1422 42.5813C57.9242 42.2455 57.861 41.7959 57.9836 41.2416C58.0812 40.8471 58.2256 40.4661 58.4147 40.1064L43.8952 51.5787H63.2064L65.5134 48.9354C68.6836 45.2381 70.1279 42.5949 70.1279 40.3331V38.412Z" fill="#FEFBFB"/>
<path d="M73.6388 4L73.2981 5.77577C72.7711 9.14115 72.9619 10.104 74.4061 11.3529L75.8002 12.5065L74.356 18.9466C73.4933 22.7889 72.4349 26.0089 71.7629 27.0671C71.1863 27.9802 70.5137 29.3241 70.3688 30.0463C70.1279 30.9095 69.3104 31.7766 68.0612 32.5445C66.9576 33.1713 64.7912 34.8515 63.2565 36.2004C62.0303 37.304 61.1855 37.9809 60.7266 38.2714L59.2279 39.4568C58.8426 40.0285 58.5526 40.6585 58.3695 41.3234C58.2649 41.8095 58.3243 42.1316 58.4785 42.3682C58.6284 42.5949 58.8873 42.754 59.2415 42.8538C59.6606 42.9524 60.0922 42.9873 60.5223 42.9584C61.4945 42.8919 62.457 42.7213 63.3928 42.4499C63.7105 42.3633 63.9601 42.2815 64.1781 42.209C64.5144 41.7959 65.291 41.0144 66.6671 39.6568C70.3186 36.0549 71.7127 34.0842 70.2734 34.6155C69.742 34.8063 69.9824 34.3245 70.8952 33.362C72.8213 31.4862 73.9249 28.6521 76.2319 19.7641C78.0576 12.7472 78.0576 12.6473 79.4021 12.6473C80.0333 12.6473 81.8181 12.7563 81.8181 12.7563V4H77.7214H73.6388ZM91.0739 18.3744C90.7834 18.3744 90.3021 18.8104 90.016 19.2918C89.489 20.1547 90.1114 20.6815 98.0411 25.6319C102.75 28.6156 106.548 31.1592 106.452 31.3543C106.357 31.4954 102.51 33.9975 97.9 36.8817C89.5342 42.0684 89.489 42.118 90.2564 43.1764C91.2194 44.4255 90.2564 44.8566 101.115 38.0806L109 33.035V29.238L100.203 23.8062C95.4475 20.8269 91.3148 18.4243 91.0739 18.3744ZM18.0214 18.9058C17.7806 18.9058 13.6477 21.3583 8.8926 24.2876L0 29.7193V33.5163L8.84263 39.0437C13.7476 42.0684 17.8805 44.5705 18.0713 44.5705C18.262 44.5705 18.6481 44.1345 19.0341 43.608C19.6109 42.6952 19.125 42.3088 11.0045 37.1678C3.27 32.3129 2.4525 31.6404 3.22459 31.1139C3.706 30.7777 7.3575 28.5159 11.2996 26.0679C20.2876 20.5408 19.8062 20.9223 19.0841 19.7686C18.798 19.2918 18.312 18.8603 18.0259 18.9058H18.0214ZM57.461 19.0102C56.135 19.0011 53.2829 21.0222 44.7445 27.9938C44.3766 28.8702 44.3449 29.474 44.5129 29.8648C44.6219 30.1329 44.8217 30.3188 45.0988 30.455C45.3713 30.5913 45.7255 30.673 46.1161 30.7052C46.8927 30.7733 47.8101 30.6507 48.5504 30.5052L49.05 30.3918C49.221 30.1623 49.4456 29.9781 49.704 29.8555C50.2309 29.565 52.4426 27.5485 54.6542 25.3867C58.5466 21.4445 59.4595 19.6642 57.8746 19.0874C57.7444 19.0357 57.6054 19.0095 57.4659 19.0102H57.461ZM67.4345 21.7488C66.2676 21.7806 64.1645 23.134 60.5631 26.0089C58.7554 27.4759 57.6109 28.2663 56.9977 28.4298L54.6183 30.31C53.7234 31.945 53.5917 32.9576 53.8279 33.5163C53.8869 33.6542 53.9728 33.779 54.0804 33.8831C54.1879 33.9877 54.3151 34.07 54.4546 34.125C54.8014 34.2618 55.1714 34.3311 55.5448 34.3294C56.4358 34.3196 57.322 34.1899 58.1788 33.943C58.6251 33.8231 59.066 33.6841 59.5004 33.5255L59.6323 33.471L59.8726 33.3435C60.3271 32.7576 61.3714 31.654 62.6794 30.3825C66.8126 26.3949 68.9245 23.5609 68.4929 22.5028C68.2978 21.9895 67.9615 21.7306 67.4345 21.7488ZM56.4255 26.6538C56.0898 26.6901 55.3355 27.2715 53.9777 28.4614C52.0157 30.1961 49.8766 31.1957 49.1363 30.7504C48.9643 30.7891 48.7917 30.8256 48.6185 30.8594C47.8646 31.0093 46.9245 31.1319 46.0843 31.0638C45.6884 31.0398 45.3004 30.9428 44.9398 30.7777C44.5997 30.6223 44.3282 30.3476 44.1768 30.0054C44.0087 29.5966 44.0088 29.0882 44.1995 28.4385L41.2474 30.8638L34.5666 36.3911V45.352L56.4576 28.1072C56.4533 27.9186 56.4778 27.73 56.5301 27.5485C56.698 26.9399 56.6893 26.6311 56.4255 26.6584V26.6538ZM65.8453 29.5558C65.5134 29.5558 64.9596 30.0239 64.074 30.964C62.8701 32.2491 60.9762 33.4934 59.9729 33.7479L59.8181 33.8297C59.6535 33.8978 59.4868 33.9615 59.3189 34.0204C59.0464 34.1114 58.6921 34.2204 58.2834 34.3294C57.4659 34.5518 56.4484 34.7561 55.5399 34.7333C55.112 34.7327 54.6875 34.6499 54.2911 34.488C53.9172 34.3343 53.6177 34.0411 53.4554 33.6705C53.192 33.0394 53.2965 32.1538 53.8733 30.8959L34.5621 46.1058V51.5787H43.0459L61.04 37.4446C61.5076 36.9269 62.2118 36.2184 63.1611 35.3328C65.7041 32.9756 66.2813 32.163 66.2813 30.9591C66.2813 30.0239 66.1766 29.5514 65.8453 29.5514V29.5558ZM70.1279 38.412L68.5883 39.9473C67.7255 40.7648 66.1859 41.773 65.1319 42.2047L64.9231 42.2951L64.9095 42.318L64.8643 42.3633C64.8234 42.3954 64.8049 42.3998 64.7733 42.4134C64.3525 42.5725 63.9252 42.7137 63.4925 42.8358C62.53 43.1159 61.5403 43.2908 60.5402 43.3579C60.0677 43.3884 59.593 43.347 59.1325 43.2353C58.733 43.1475 58.3804 42.9143 58.1422 42.5813C57.9242 42.2455 57.861 41.7959 57.9836 41.2416C58.0812 40.8471 58.2256 40.4661 58.4147 40.1064L43.8952 51.5787H63.2064L65.5134 48.9354C68.6836 45.2381 70.1279 42.5949 70.1279 40.3331V38.412Z" fill="#0072F5"/>
</svg>
