<svg width="64" height="64" viewBox="0 0 64 64" fill="none" xmlns="http://www.w3.org/2000/svg">
<path fill-rule="evenodd" clip-rule="evenodd" d="M16 25.6C18.133 17.067 23.467 12.8 32 12.8C44.8 12.8 46.4 22.4 52.8 24C57.067 25.067 60.8 23.467 64 19.2C61.867 27.733 56.533 32 48 32C35.2 32 33.6 22.4 27.2 20.8C22.933 19.733 19.2 21.333 16 25.6ZM0 44.8C2.133 36.267 7.467 32 16 32C28.8 32 30.4 41.6001 36.8 43.2001C41.067 44.2671 44.8 42.6671 48 38.4001C45.867 46.9331 40.533 51.2001 32 51.2001C19.2 51.2001 17.6 41.6 11.2 40C6.933 38.933 3.2 40.533 0 44.8Z" fill="url(#paint0_linear_530_11)"/>
<defs>
<linearGradient id="paint0_linear_530_11" x1="1.59037e-06" y1="-21.333" x2="64" y2="85.333" gradientUnits="userSpaceOnUse">
<stop stop-color="#2383AE"/>
<stop offset="0.0001" stop-color="#0072F5"/>
</linearGradient>
</defs>
</svg>
