<svg width="65" height="65" viewBox="0 0 65 65" fill="none" xmlns="http://www.w3.org/2000/svg">
<path d="M32.5 26.7069C31.7392 26.7069 30.9859 26.8567 30.2831 27.1479C29.5802 27.439 28.9416 27.8657 28.4036 28.4037C27.8657 28.9416 27.439 29.5802 27.1479 30.2831C26.8567 30.9859 26.7069 31.7393 26.7069 32.5C26.7069 33.2608 26.8567 34.0141 27.1479 34.717C27.439 35.4198 27.8657 36.0584 28.4036 36.5964C28.9416 37.1343 29.5802 37.561 30.2831 37.8522C30.9859 38.1433 31.7392 38.2932 32.5 38.2932C33.2608 38.2932 34.0141 38.1433 34.7169 37.8522C35.4198 37.561 36.0584 37.1343 36.5964 36.5964C37.1343 36.0584 37.561 35.4198 37.8521 34.717C38.1433 34.0141 38.2931 33.2608 38.2931 32.5C38.2931 31.7393 38.1433 30.9859 37.8521 30.2831C37.561 29.5802 37.1343 28.9416 36.5964 28.4037C36.0584 27.8657 35.4198 27.439 34.7169 27.1479C34.0141 26.8567 33.2608 26.7069 32.5 26.7069ZM16.2717 44.024L14.9933 43.699C5.46542 41.2913 0 37.2044 0 32.4892C0 27.774 5.46542 23.6871 14.9933 21.2794L16.2717 20.9571L16.6319 22.2246C17.5971 25.5497 18.8316 28.7905 20.3233 31.915L20.5969 32.4919L20.3233 33.0688C18.8292 36.1922 17.5945 39.4333 16.6319 42.7592L16.2717 44.024ZM14.4002 24.2396C7.15812 26.2736 2.71375 29.3854 2.71375 32.4892C2.71375 35.5902 7.15812 38.7021 14.4002 40.7388C15.2859 37.9219 16.3553 35.1662 17.6015 32.4892C16.3538 29.8128 15.2844 27.057 14.4002 24.2396ZM48.7283 44.024L48.3681 42.7538C47.4039 39.4289 46.1684 36.1888 44.674 33.0661L44.4004 32.4892L44.674 31.9123C46.1678 28.7884 47.4033 25.5475 48.3681 22.2219L48.7283 20.9544L50.0094 21.2767C59.5346 23.6844 65 27.7713 65 32.4892C65 37.2071 59.5346 41.2913 50.0094 43.699L48.7283 44.024ZM47.3985 32.4892C48.6985 35.3032 49.7738 38.0684 50.5998 40.7388C57.8446 38.7021 62.2862 35.5902 62.2862 32.4892C62.2862 29.3854 57.8419 26.2763 50.5998 24.2396C49.7153 27.0569 48.6459 29.8127 47.3985 32.4892ZM14.3812 24.2261L14.021 22.9613C11.3425 13.52 12.155 6.75461 16.25 4.39294C20.2665 2.07461 26.715 4.81273 33.4723 11.7488L34.3931 12.694L33.4723 13.6392C31.0712 16.1352 28.8775 18.8226 26.9127 21.6748L26.5471 22.1975L25.9106 22.2517C22.4545 22.5241 19.0263 23.0767 15.6596 23.9038L14.3812 24.2261ZM19.5162 6.26981C18.7904 6.26981 18.1485 6.4269 17.6069 6.73836C14.9148 8.29023 14.4381 13.6852 16.2933 20.9652C19.1794 20.3232 22.1043 19.8699 25.0494 19.6084C26.7486 17.1922 28.6052 14.8906 30.6069 12.7184C26.3819 8.6044 22.3817 6.26981 19.5162 6.26981ZM45.4865 61.4169C45.4837 61.4169 45.4837 61.4169 45.4865 61.4169C41.6271 61.4169 36.6708 58.5109 31.5277 53.2296L30.6069 52.2844L31.5277 51.3392C33.9281 48.8424 36.121 46.154 38.0846 43.3009L38.4502 42.7782L39.084 42.724C42.5418 42.453 45.9719 41.9014 49.3404 41.0746L50.6188 40.7523L50.9817 42.0198C53.6548 51.4557 52.845 58.2238 48.75 60.5827C47.7553 61.1451 46.629 61.433 45.4865 61.4169ZM34.3931 52.26C38.6181 56.374 42.6183 58.7086 45.4837 58.7086H45.4865C46.2096 58.7086 46.8542 58.5515 47.3931 58.24C50.0852 56.6881 50.5646 51.2904 48.7067 44.0104C45.8198 44.6534 42.894 45.1067 39.9479 45.3673C38.2507 47.7851 36.395 50.0878 34.3931 52.26ZM50.6188 24.2261L49.3404 23.9038C45.9724 23.0743 42.5421 22.5217 39.084 22.2517L38.4502 22.1975L38.0846 21.6748C36.122 18.8217 33.9291 16.1342 31.5277 13.6392L30.6069 12.694L31.5277 11.7488C38.2823 4.81544 44.7281 2.07731 48.75 4.39294C52.845 6.75461 53.6575 13.52 50.9817 22.9586L50.6188 24.2261ZM39.9479 19.6084C43.0408 19.89 45.9794 20.3477 48.7067 20.9652C50.5646 13.6852 50.0852 8.29023 47.3931 6.73836C44.7173 5.1919 39.6879 7.56169 34.3931 12.7184C36.3939 14.8907 38.2495 17.1923 39.9479 19.6084ZM19.5162 61.4169C18.3728 61.4335 17.2455 61.1456 16.25 60.5827C12.155 58.2238 11.3425 51.4584 14.021 42.0198L14.3785 40.7523L15.6569 41.0746C18.785 41.8627 22.2354 42.4179 25.9079 42.724L26.5444 42.7782L26.9073 43.3009C28.8723 46.1537 31.0661 48.842 33.4669 51.3392L34.3877 52.2844L33.4669 53.2296C28.3265 58.5109 23.3702 61.4169 19.5162 61.4169ZM16.2933 44.0104C14.4354 51.2904 14.9148 56.6881 17.6069 58.24C20.28 59.7648 25.3067 57.414 30.6069 52.26C28.606 50.0862 26.7495 47.7837 25.0494 45.3673C22.1042 45.1069 19.1792 44.6536 16.2933 44.0104ZM32.5 45.7113C30.271 45.7113 27.9798 45.6138 25.6858 45.4242L25.0494 45.37L24.6838 44.8473C23.3862 42.9829 22.1664 41.0656 21.0275 39.1002C19.892 37.1333 18.8384 35.1202 17.8696 33.0661L17.5987 32.4892L17.8696 31.9123C18.8383 29.8581 19.8918 27.845 21.0275 25.8782C22.1487 23.939 23.381 22.0052 24.6838 20.1311L25.0494 19.6084L25.6858 19.5542C30.2214 19.1696 34.7813 19.1696 39.3169 19.5542L39.9506 19.6084L40.3135 20.1311C42.9113 23.8606 45.1916 27.8015 47.1304 31.9123L47.404 32.4892L47.1304 33.0661C45.1962 37.1793 42.9157 41.1206 40.3135 44.8473L39.9506 45.37L39.3169 45.4242C37.0229 45.6138 34.729 45.7113 32.5 45.7113ZM26.5498 42.7754C30.5581 43.0761 34.4419 43.0761 38.4529 42.7754C40.6922 39.5018 42.6804 36.0632 44.4004 32.4892C42.6835 28.9131 40.6942 25.4742 38.4502 22.2029C34.4891 21.9023 30.5109 21.9023 26.5498 22.2029C24.3048 25.4736 22.3155 28.9125 20.5996 32.4892C22.3214 36.0627 24.3105 39.5012 26.5498 42.7754Z" fill="#0072F5"/>
</svg>
