<svg width="538" height="468" viewBox="0 0 538 468" fill="none" xmlns="http://www.w3.org/2000/svg">
<g clip-path="url(#clip0_21_96)">
<path d="M485.082 243.555C485.152 301.465 462.739 357.147 422.555 398.896C420.132 401.429 417.644 403.901 415.091 406.312C411.201 410.008 407.18 413.56 403.028 416.969C364.192 448.925 315.709 466.882 265.4 467.943C263.724 467.981 262.041 468 260.353 468C220.23 468 169.766 446.597 123.97 416.969C120.181 414.518 116.426 412.01 112.705 409.445C110.965 408.258 109.234 407.053 107.512 405.832C89.8488 393.376 73.0832 379.697 57.3386 364.896C47.03 355.234 37.3632 344.911 28.3998 333.992C-6.78842 290.643 -14.5497 251.584 35.6171 243.555C41.5567 242.607 47.3212 241.594 52.9108 240.516C61.0073 238.962 68.756 237.284 76.1567 235.481C86.1255 233.062 95.4913 230.438 104.254 227.61C107.202 226.662 110.082 225.696 112.895 224.71C154.478 210.124 182.31 191.103 201.254 170.464C204.468 166.971 207.43 163.435 210.141 159.858C214.29 154.412 218.058 148.688 221.42 142.725C226.059 134.441 229.956 125.763 233.065 116.793L233.236 116.3C248.309 72.8754 243.723 32.5967 260.353 19.1157C331.438 -38.5165 419.936 43.5571 461.475 140.344C463.569 145.22 465.538 150.127 467.383 155.063C468.212 157.267 469.011 159.476 469.781 161.69C471.805 167.457 473.641 173.24 475.29 179.037C475.922 181.248 476.526 183.457 477.099 185.663C477.713 188.045 478.301 190.42 478.845 192.796C482.887 210.187 485.082 227.338 485.082 243.555Z" fill="#797979"/>
<path d="M265.4 467.943C263.724 467.981 262.041 468 260.353 468C220.23 468 169.766 446.597 123.97 416.969C120.181 414.518 116.426 412.01 112.705 409.445L115.969 389.609L214.778 376.507L264.369 414.379L265.4 467.943Z" fill="#2F2E41"/>
<path d="M270.157 113.742H256.077C255.64 113.742 255.222 113.915 254.914 114.223C254.605 114.531 254.432 114.949 254.432 115.384V129.453C254.432 129.668 254.475 129.881 254.558 130.08C254.641 130.279 254.762 130.459 254.915 130.611C255.067 130.763 255.248 130.884 255.448 130.966C255.647 131.048 255.861 131.089 256.077 131.089H270.157C270.592 131.089 271.009 130.917 271.318 130.61C271.626 130.303 271.8 129.887 271.801 129.453V115.384C271.8 114.949 271.627 114.532 271.318 114.224C271.01 113.916 270.593 113.743 270.157 113.742Z" fill="white"/>
<path d="M270.157 137.716H256.077C255.64 137.716 255.222 137.889 254.914 138.197C254.605 138.505 254.432 138.923 254.432 139.358V153.427C254.432 153.642 254.475 153.855 254.558 154.054C254.641 154.253 254.762 154.433 254.915 154.585C255.067 154.737 255.248 154.858 255.448 154.94C255.647 155.022 255.861 155.063 256.077 155.063H270.157C270.592 155.063 271.009 154.891 271.318 154.584C271.626 154.277 271.8 153.861 271.801 153.427V139.358C271.8 138.923 271.627 138.506 271.318 138.198C271.01 137.89 270.593 137.717 270.157 137.716Z" fill="#E6E6E6"/>
<path d="M270.157 161.69H256.077C255.64 161.69 255.222 161.863 254.914 162.171C254.605 162.479 254.432 162.897 254.432 163.332V177.394C254.432 177.61 254.474 177.824 254.556 178.023C254.639 178.223 254.76 178.404 254.913 178.557C255.066 178.709 255.247 178.83 255.447 178.913C255.646 178.995 255.86 179.037 256.077 179.037H270.157C270.593 179.036 271.011 178.863 271.32 178.555C271.628 178.247 271.801 177.83 271.801 177.394V163.332C271.8 162.897 271.627 162.48 271.318 162.172C271.01 161.864 270.593 161.691 270.157 161.69Z" fill="#E6E6E6"/>
<path d="M271.776 187.015C271.706 186.637 271.506 186.295 271.21 186.048C270.915 185.801 270.542 185.665 270.157 185.663H256.077C255.64 185.664 255.222 185.837 254.914 186.145C254.606 186.453 254.432 186.87 254.432 187.306V201.368C254.432 201.584 254.474 201.798 254.556 201.997C254.639 202.197 254.76 202.378 254.913 202.53C255.065 202.683 255.247 202.804 255.447 202.886C255.646 202.969 255.86 203.011 256.077 203.011H270.157C270.593 203.01 271.011 202.837 271.32 202.529C271.628 202.221 271.801 201.804 271.802 201.368V187.306C271.803 187.209 271.794 187.111 271.776 187.015Z" fill="#E6E6E6"/>
<path d="M270.796 209.764C270.593 209.68 270.376 209.637 270.157 209.637H256.077C255.86 209.637 255.646 209.679 255.447 209.762C255.247 209.844 255.066 209.965 254.913 210.118C254.76 210.27 254.639 210.451 254.556 210.651C254.474 210.85 254.432 211.064 254.432 211.28V225.342C254.431 225.558 254.473 225.772 254.555 225.972C254.638 226.171 254.759 226.353 254.912 226.506C255.064 226.658 255.246 226.779 255.446 226.862C255.646 226.944 255.86 226.986 256.077 226.985H270.157C270.593 226.984 271.011 226.811 271.32 226.503C271.628 226.195 271.801 225.778 271.802 225.342V211.28C271.801 210.957 271.705 210.641 271.526 210.371C271.348 210.102 271.094 209.891 270.796 209.764Z" fill="#E6E6E6"/>
<path d="M299.735 113.742H285.654C285.218 113.742 284.8 113.915 284.492 114.223C284.183 114.531 284.01 114.949 284.01 115.384V129.453C284.01 129.668 284.053 129.881 284.135 130.08C284.218 130.279 284.339 130.459 284.492 130.611C284.645 130.763 284.826 130.884 285.026 130.966C285.225 131.048 285.439 131.089 285.654 131.089H299.735C300.17 131.089 300.587 130.917 300.895 130.61C301.204 130.303 301.378 129.887 301.379 129.453V115.384C301.378 114.949 301.204 114.532 300.896 114.224C300.588 113.916 300.17 113.743 299.735 113.742Z" fill="#E6E6E6"/>
<path d="M299.735 137.716H285.654C285.218 137.716 284.8 137.889 284.492 138.197C284.183 138.505 284.01 138.923 284.01 139.358V153.427C284.01 153.642 284.053 153.855 284.135 154.054C284.218 154.253 284.339 154.433 284.492 154.585C284.645 154.737 284.826 154.858 285.026 154.94C285.225 155.022 285.439 155.063 285.654 155.063H299.735C300.17 155.063 300.587 154.891 300.895 154.584C301.204 154.277 301.378 153.861 301.379 153.427V139.358C301.378 138.923 301.204 138.506 300.896 138.198C300.588 137.89 300.17 137.717 299.735 137.716Z" fill="#6C63FF"/>
<path d="M299.735 161.69H285.654C285.218 161.69 284.8 161.863 284.492 162.171C284.183 162.479 284.01 162.897 284.01 163.332V177.394C284.009 177.61 284.051 177.824 284.134 178.023C284.216 178.223 284.338 178.404 284.49 178.557C284.643 178.709 284.825 178.83 285.024 178.913C285.224 178.995 285.438 179.037 285.654 179.037H299.735C300.171 179.036 300.589 178.863 300.897 178.555C301.206 178.247 301.379 177.83 301.379 177.394V163.332C301.378 162.897 301.204 162.48 300.896 162.172C300.588 161.864 300.17 161.691 299.735 161.69Z" fill="#6C63FF"/>
<path d="M299.735 185.663H285.654C285.309 185.664 284.973 185.772 284.694 185.974C284.415 186.176 284.206 186.461 284.098 186.788C284.04 186.954 284.01 187.13 284.01 187.306V201.368C284.009 201.584 284.051 201.798 284.134 201.997C284.216 202.197 284.338 202.378 284.49 202.53C284.643 202.683 284.825 202.804 285.024 202.886C285.224 202.969 285.438 203.011 285.654 203.011H299.735C300.171 203.01 300.589 202.837 300.897 202.529C301.206 202.221 301.379 201.804 301.379 201.368V187.306C301.378 186.871 301.204 186.454 300.896 186.146C300.588 185.838 300.17 185.665 299.735 185.663Z" fill="#6C63FF"/>
<path d="M299.735 209.637H285.654C285.438 209.637 285.224 209.679 285.024 209.762C284.825 209.844 284.643 209.965 284.49 210.118C284.338 210.27 284.216 210.451 284.134 210.651C284.051 210.85 284.009 211.064 284.01 211.28V225.342C284.009 225.558 284.051 225.772 284.134 225.971C284.216 226.171 284.338 226.352 284.49 226.504C284.643 226.657 284.825 226.778 285.024 226.86C285.224 226.943 285.438 226.985 285.654 226.985H299.735C300.171 226.984 300.589 226.811 300.897 226.503C301.206 226.195 301.379 225.778 301.379 225.342V211.28C301.379 210.844 301.206 210.427 300.897 210.119C300.589 209.811 300.171 209.638 299.735 209.637Z" fill="#E6E6E6"/>
<path d="M329.312 113.742H315.232C314.796 113.742 314.378 113.915 314.069 114.223C313.761 114.531 313.587 114.949 313.587 115.384V129.453C313.587 129.668 313.63 129.881 313.713 130.08C313.796 130.279 313.917 130.459 314.07 130.611C314.223 130.763 314.404 130.884 314.603 130.966C314.803 131.048 315.016 131.089 315.232 131.089H329.312C329.747 131.089 330.165 130.917 330.473 130.61C330.781 130.303 330.955 129.887 330.957 129.453V115.384C330.956 114.949 330.782 114.532 330.474 114.224C330.165 113.916 329.748 113.743 329.312 113.742Z" fill="#6C63FF"/>
<path d="M329.312 137.716H315.232C314.796 137.716 314.378 137.889 314.069 138.197C313.761 138.505 313.587 138.923 313.587 139.358V153.427C313.587 153.642 313.63 153.855 313.713 154.054C313.796 154.253 313.917 154.433 314.07 154.585C314.223 154.737 314.404 154.858 314.603 154.94C314.803 155.022 315.016 155.063 315.232 155.063H329.312C329.747 155.063 330.165 154.891 330.473 154.584C330.781 154.277 330.955 153.861 330.957 153.427V139.358C330.956 138.923 330.782 138.506 330.474 138.198C330.166 137.89 329.748 137.717 329.312 137.716Z" fill="#6C63FF"/>
<path d="M329.312 161.69H315.232C314.796 161.69 314.378 161.863 314.069 162.171C313.761 162.479 313.587 162.897 313.587 163.332V177.394C313.587 177.61 313.629 177.824 313.712 178.023C313.794 178.223 313.915 178.404 314.068 178.557C314.221 178.709 314.402 178.83 314.602 178.913C314.802 178.995 315.016 179.037 315.232 179.037H329.312C329.748 179.036 330.166 178.863 330.475 178.555C330.783 178.247 330.957 177.83 330.957 177.394V163.332C330.956 162.897 330.782 162.48 330.474 162.172C330.166 161.864 329.748 161.691 329.312 161.69Z" fill="#E6E6E6"/>
<path d="M329.312 185.663H315.232C314.796 185.664 314.378 185.837 314.069 186.145C313.761 186.453 313.587 186.87 313.587 187.306V201.368C313.587 201.584 313.629 201.798 313.712 201.997C313.794 202.197 313.915 202.378 314.068 202.53C314.221 202.683 314.402 202.804 314.602 202.886C314.802 202.969 315.016 203.011 315.232 203.011H329.312C329.748 203.01 330.166 202.837 330.475 202.529C330.783 202.221 330.957 201.804 330.957 201.368V187.306C330.956 186.871 330.782 186.454 330.474 186.146C330.166 185.838 329.748 185.665 329.312 185.663Z" fill="#6C63FF"/>
<path d="M329.312 209.637H315.232C315.016 209.637 314.802 209.679 314.602 209.762C314.402 209.844 314.221 209.965 314.068 210.118C313.915 210.27 313.794 210.451 313.712 210.651C313.629 210.85 313.587 211.064 313.587 211.28V225.342C313.587 225.558 313.629 225.772 313.712 225.971C313.794 226.171 313.915 226.352 314.068 226.504C314.221 226.657 314.402 226.778 314.602 226.86C314.802 226.943 315.016 226.985 315.232 226.985H329.312C329.748 226.984 330.166 226.811 330.475 226.503C330.783 226.195 330.957 225.778 330.957 225.342V211.28C330.957 210.844 330.783 210.427 330.475 210.119C330.166 209.811 329.748 209.638 329.312 209.637Z" fill="#6C63FF"/>
<path d="M358.89 113.742H344.809C344.373 113.742 343.955 113.915 343.647 114.223C343.338 114.531 343.165 114.949 343.165 115.384V129.453C343.165 129.668 343.208 129.881 343.291 130.08C343.373 130.279 343.495 130.459 343.647 130.611C343.8 130.763 343.981 130.884 344.181 130.966C344.38 131.048 344.594 131.089 344.809 131.089H358.89C359.325 131.089 359.742 130.917 360.051 130.61C360.359 130.303 360.533 129.887 360.534 129.453V115.384C360.533 114.949 360.359 114.532 360.051 114.224C359.743 113.916 359.326 113.743 358.89 113.742Z" fill="#6C63FF"/>
<path d="M358.89 137.716H344.809C344.373 137.716 343.955 137.889 343.647 138.197C343.338 138.505 343.165 138.923 343.165 139.358V153.427C343.165 153.642 343.208 153.855 343.291 154.054C343.373 154.253 343.495 154.433 343.647 154.585C343.8 154.737 343.981 154.858 344.181 154.94C344.38 155.022 344.594 155.063 344.809 155.063H358.89C359.325 155.063 359.742 154.891 360.051 154.584C360.359 154.277 360.533 153.861 360.534 153.427V139.358C360.533 138.923 360.359 138.506 360.051 138.198C359.743 137.89 359.326 137.717 358.89 137.716Z" fill="white"/>
<path d="M358.89 161.69H344.809C344.373 161.69 343.955 161.863 343.647 162.171C343.338 162.479 343.165 162.897 343.165 163.332V177.394C343.164 177.61 343.207 177.824 343.289 178.023C343.372 178.223 343.493 178.404 343.646 178.557C343.798 178.709 343.98 178.83 344.18 178.913C344.379 178.995 344.593 179.037 344.809 179.037H358.89C359.326 179.036 359.744 178.863 360.052 178.555C360.361 178.247 360.534 177.83 360.534 177.394V163.332C360.533 162.897 360.359 162.48 360.051 162.172C359.743 161.864 359.326 161.691 358.89 161.69Z" fill="white"/>
<path d="M358.89 185.663H344.809C344.373 185.664 343.955 185.837 343.647 186.145C343.338 186.453 343.165 186.87 343.165 187.306V201.368C343.164 201.584 343.207 201.798 343.289 201.997C343.372 202.197 343.493 202.378 343.646 202.531C343.798 202.683 343.98 202.804 344.18 202.886C344.379 202.969 344.593 203.011 344.809 203.011H358.89C359.326 203.01 359.744 202.837 360.052 202.529C360.361 202.221 360.534 201.804 360.534 201.368V187.306C360.533 186.871 360.359 186.454 360.051 186.146C359.743 185.838 359.326 185.665 358.89 185.663Z" fill="#E6E6E6"/>
<path d="M358.89 209.637H344.809C344.593 209.637 344.379 209.679 344.18 209.762C343.98 209.844 343.798 209.965 343.646 210.118C343.493 210.27 343.372 210.451 343.289 210.651C343.207 210.85 343.164 211.064 343.165 211.28V225.342C343.164 225.558 343.207 225.772 343.289 225.971C343.372 226.171 343.493 226.352 343.646 226.504C343.798 226.657 343.98 226.778 344.18 226.86C344.379 226.943 344.593 226.985 344.809 226.985H358.89C359.326 226.984 359.744 226.811 360.052 226.503C360.361 226.195 360.534 225.778 360.534 225.342V211.28C360.534 210.844 360.361 210.427 360.052 210.119C359.744 209.811 359.326 209.638 358.89 209.637Z" fill="#6C63FF"/>
<path d="M388.467 113.742H374.381C373.946 113.743 373.529 113.917 373.222 114.225C372.915 114.533 372.742 114.95 372.742 115.384V129.453C372.742 129.887 372.915 130.303 373.222 130.609C373.53 130.916 373.946 131.089 374.381 131.089H388.467C388.902 131.089 389.32 130.917 389.628 130.61C389.937 130.303 390.11 129.887 390.112 129.453V115.384C390.111 114.949 389.937 114.532 389.629 114.224C389.321 113.916 388.903 113.743 388.467 113.742Z" fill="white"/>
<path d="M388.467 137.716H374.381C373.946 137.717 373.529 137.891 373.222 138.199C372.915 138.507 372.742 138.924 372.742 139.358V153.427C372.742 153.861 372.915 154.277 373.222 154.583C373.53 154.89 373.946 155.063 374.381 155.063H388.467C388.902 155.063 389.32 154.891 389.628 154.584C389.937 154.277 390.11 153.861 390.112 153.427V139.358C390.111 138.923 389.937 138.506 389.629 138.198C389.321 137.89 388.903 137.717 388.467 137.716Z" fill="white"/>
<path d="M388.467 161.69H374.381C373.946 161.691 373.529 161.865 373.222 162.173C372.915 162.481 372.742 162.897 372.742 163.332V177.394C372.742 177.61 372.784 177.823 372.866 178.022C372.948 178.221 373.068 178.402 373.221 178.555C373.373 178.707 373.553 178.828 373.753 178.911C373.952 178.994 374.165 179.036 374.381 179.037H388.467C388.903 179.036 389.322 178.863 389.63 178.555C389.938 178.247 390.112 177.83 390.112 177.394V163.332C390.111 162.897 389.937 162.48 389.629 162.172C389.321 161.864 388.903 161.691 388.467 161.69Z" fill="white"/>
<path d="M388.467 185.663H374.381C373.946 185.665 373.529 185.839 373.222 186.147C372.915 186.455 372.742 186.871 372.742 187.306V201.368C372.742 201.583 372.784 201.797 372.866 201.996C372.948 202.195 373.068 202.376 373.22 202.529C373.373 202.681 373.553 202.802 373.753 202.885C373.952 202.968 374.165 203.01 374.381 203.011H388.467C388.903 203.01 389.322 202.837 389.63 202.529C389.938 202.221 390.112 201.804 390.112 201.368V187.306C390.111 186.871 389.937 186.454 389.629 186.146C389.321 185.838 388.903 185.665 388.467 185.663Z" fill="#6C63FF"/>
<path d="M388.467 209.637H374.381C374.165 209.638 373.952 209.68 373.753 209.763C373.553 209.846 373.373 209.967 373.22 210.119C373.068 210.272 372.948 210.453 372.866 210.652C372.784 210.851 372.742 211.065 372.742 211.28V225.342C372.742 225.557 372.784 225.771 372.866 225.97C372.948 226.169 373.068 226.35 373.22 226.503C373.373 226.655 373.553 226.776 373.753 226.859C373.952 226.942 374.165 226.984 374.381 226.985H388.467C388.903 226.984 389.322 226.811 389.63 226.503C389.938 226.195 390.112 225.778 390.112 225.342V211.28C390.112 210.844 389.938 210.427 389.63 210.119C389.322 209.811 388.903 209.638 388.467 209.637Z" fill="#E6E6E6"/>
<path d="M418.045 113.742H403.958C403.523 113.743 403.106 113.917 402.799 114.225C402.492 114.533 402.32 114.95 402.32 115.384V129.453C402.32 129.887 402.493 130.303 402.8 130.609C403.107 130.916 403.524 131.089 403.958 131.089H418.045C418.48 131.089 418.898 130.917 419.206 130.61C419.514 130.303 419.688 129.887 419.69 129.453V115.384C419.688 114.949 419.515 114.532 419.206 114.224C418.898 113.916 418.481 113.743 418.045 113.742Z" fill="white"/>
<path d="M418.045 137.716H403.958C403.523 137.717 403.106 137.891 402.799 138.199C402.492 138.507 402.32 138.924 402.32 139.358V153.427C402.32 153.861 402.493 154.277 402.8 154.583C403.107 154.89 403.524 155.063 403.958 155.063H418.045C418.48 155.063 418.898 154.891 419.206 154.584C419.514 154.277 419.688 153.861 419.69 153.427V139.358C419.688 138.923 419.515 138.506 419.206 138.198C418.898 137.89 418.481 137.717 418.045 137.716Z" fill="white"/>
<path d="M418.045 161.69H403.958C403.523 161.691 403.106 161.865 402.799 162.173C402.492 162.481 402.32 162.897 402.32 163.332V177.394C402.319 177.61 402.361 177.823 402.443 178.022C402.525 178.221 402.646 178.402 402.798 178.555C402.95 178.707 403.131 178.828 403.33 178.911C403.529 178.994 403.743 179.036 403.958 179.037H418.045C418.481 179.036 418.899 178.863 419.208 178.555C419.516 178.247 419.689 177.83 419.69 177.394V163.332C419.688 162.897 419.515 162.48 419.206 162.172C418.898 161.864 418.481 161.691 418.045 161.69Z" fill="#6C63FF"/>
<path d="M418.045 185.663H403.958C403.523 185.665 403.106 185.839 402.799 186.147C402.492 186.455 402.32 186.871 402.32 187.306V201.368C402.319 201.583 402.361 201.797 402.443 201.996C402.525 202.195 402.646 202.376 402.798 202.529C402.95 202.681 403.131 202.802 403.33 202.885C403.529 202.968 403.743 203.01 403.958 203.011H418.045C418.481 203.01 418.899 202.837 419.208 202.529C419.516 202.221 419.689 201.804 419.69 201.368V187.306C419.688 186.871 419.515 186.454 419.206 186.146C418.898 185.838 418.481 185.665 418.045 185.663Z" fill="#E6E6E6"/>
<path d="M418.045 209.637H403.958C403.743 209.638 403.529 209.68 403.33 209.763C403.131 209.846 402.95 209.967 402.798 210.119C402.646 210.272 402.525 210.453 402.443 210.652C402.361 210.851 402.319 211.065 402.32 211.28V225.342C402.319 225.557 402.361 225.771 402.443 225.97C402.525 226.169 402.646 226.35 402.798 226.503C402.95 226.655 403.131 226.776 403.33 226.859C403.529 226.942 403.743 226.984 403.958 226.985H418.045C418.481 226.984 418.899 226.811 419.208 226.503C419.516 226.195 419.689 225.778 419.69 225.342V211.28C419.689 210.844 419.516 210.427 419.208 210.119C418.899 209.811 418.481 209.638 418.045 209.637Z" fill="white"/>
<path d="M447.623 113.742H433.536C433.101 113.743 432.684 113.917 432.377 114.225C432.07 114.533 431.897 114.95 431.898 115.384V129.453C431.898 129.887 432.07 130.303 432.378 130.609C432.685 130.916 433.101 131.089 433.536 131.089H447.623C448.058 131.089 448.475 130.917 448.783 130.61C449.092 130.303 449.266 129.887 449.267 129.453V115.384C449.266 114.949 449.092 114.532 448.784 114.224C448.476 113.916 448.058 113.743 447.623 113.742Z" fill="#6C63FF"/>
<path d="M447.623 137.716H433.536C433.101 137.717 432.684 137.891 432.377 138.199C432.07 138.507 431.897 138.924 431.898 139.358V153.427C431.898 153.861 432.07 154.277 432.378 154.583C432.685 154.89 433.101 155.063 433.536 155.063H447.623C448.058 155.063 448.475 154.891 448.783 154.584C449.092 154.277 449.266 153.861 449.267 153.427V139.358C449.266 138.923 449.092 138.506 448.784 138.198C448.476 137.89 448.058 137.717 447.623 137.716Z" fill="#6C63FF"/>
<path d="M447.622 161.69H433.536C433.101 161.691 432.684 161.865 432.377 162.173C432.07 162.481 431.897 162.897 431.898 163.332V177.394C431.897 177.61 431.939 177.823 432.021 178.022C432.103 178.221 432.224 178.402 432.376 178.555C432.528 178.707 432.709 178.828 432.908 178.911C433.107 178.994 433.32 179.036 433.536 179.037H447.622C448.059 179.036 448.477 178.863 448.785 178.555C449.094 178.247 449.267 177.83 449.267 177.394V163.332C449.266 162.897 449.092 162.48 448.784 162.172C448.476 161.864 448.058 161.691 447.622 161.69Z" fill="#E6E6E6"/>
<path d="M447.622 185.663H433.536C433.101 185.665 432.684 185.839 432.377 186.147C432.07 186.455 431.897 186.871 431.898 187.306V201.368C431.897 201.583 431.939 201.797 432.021 201.996C432.103 202.195 432.224 202.376 432.376 202.529C432.528 202.681 432.709 202.802 432.908 202.885C433.107 202.968 433.32 203.01 433.536 203.011H447.622C448.059 203.01 448.477 202.837 448.785 202.529C449.094 202.221 449.267 201.804 449.267 201.368V187.306C449.266 186.871 449.092 186.454 448.784 186.146C448.476 185.838 448.058 185.665 447.622 185.663Z" fill="white"/>
<path d="M447.622 209.637H433.536C433.32 209.638 433.107 209.68 432.908 209.763C432.709 209.846 432.528 209.967 432.376 210.119C432.224 210.272 432.103 210.453 432.021 210.652C431.939 210.851 431.897 211.065 431.898 211.28V225.342C431.897 225.557 431.939 225.771 432.021 225.97C432.103 226.169 432.224 226.35 432.376 226.503C432.528 226.655 432.709 226.776 432.908 226.859C433.107 226.942 433.32 226.984 433.536 226.985H447.622C448.059 226.984 448.477 226.811 448.785 226.503C449.094 226.195 449.267 225.778 449.267 225.342V211.28C449.267 210.844 449.094 210.427 448.785 210.119C448.477 209.811 448.059 209.638 447.622 209.637Z" fill="#6C63FF"/>
<path d="M477.2 113.742H463.114C462.678 113.743 462.262 113.917 461.955 114.225C461.647 114.533 461.475 114.95 461.475 115.384V129.453C461.475 129.887 461.648 130.303 461.955 130.609C462.262 130.916 462.679 131.089 463.114 131.089H477.2C477.635 131.089 478.053 130.917 478.361 130.61C478.669 130.303 478.843 129.887 478.845 129.453V115.384C478.844 114.949 478.67 114.532 478.362 114.224C478.054 113.916 477.636 113.743 477.2 113.742Z" fill="#6C63FF"/>
<path d="M477.2 137.716H463.114C462.678 137.717 462.262 137.891 461.954 138.199C461.647 138.507 461.475 138.924 461.475 139.358V153.427C461.475 153.861 461.648 154.277 461.955 154.583C462.262 154.89 462.679 155.063 463.114 155.063H477.2C477.635 155.063 478.053 154.891 478.361 154.584C478.669 154.277 478.843 153.861 478.845 153.427V139.358C478.844 138.923 478.67 138.506 478.362 138.198C478.054 137.89 477.636 137.717 477.2 137.716Z" fill="#6C63FF"/>
<path d="M477.2 161.69H463.114C462.678 161.691 462.262 161.865 461.954 162.173C461.647 162.481 461.475 162.897 461.475 163.332V177.394C461.475 177.61 461.517 177.823 461.599 178.022C461.681 178.221 461.801 178.402 461.953 178.555C462.106 178.707 462.286 178.828 462.485 178.911C462.684 178.994 462.898 179.036 463.114 179.037H477.2C477.636 179.036 478.054 178.863 478.363 178.555C478.671 178.247 478.845 177.83 478.845 177.394V163.332C478.844 162.897 478.67 162.48 478.362 162.172C478.054 161.864 477.636 161.691 477.2 161.69Z" fill="#E6E6E6"/>
<path d="M477.2 185.663H463.114C462.678 185.665 462.262 185.839 461.955 186.147C461.647 186.455 461.475 186.871 461.475 187.306V201.368C461.475 201.583 461.517 201.797 461.599 201.996C461.681 202.195 461.801 202.376 461.953 202.529C462.106 202.681 462.286 202.802 462.485 202.885C462.684 202.968 462.898 203.01 463.114 203.011H477.2C477.636 203.01 478.055 202.837 478.363 202.529C478.671 202.221 478.845 201.804 478.845 201.368V187.306C478.844 186.871 478.67 186.454 478.362 186.146C478.054 185.838 477.636 185.665 477.2 185.663Z" fill="#6C63FF"/>
<path d="M477.2 209.637H463.114C462.898 209.638 462.684 209.68 462.485 209.763C462.286 209.846 462.106 209.967 461.953 210.119C461.801 210.272 461.681 210.453 461.599 210.652C461.517 210.851 461.475 211.065 461.475 211.28V225.342C461.475 225.557 461.517 225.771 461.599 225.97C461.681 226.169 461.801 226.35 461.953 226.503C462.106 226.655 462.286 226.776 462.485 226.859C462.684 226.942 462.898 226.984 463.114 226.985H477.2C477.636 226.984 478.055 226.811 478.363 226.503C478.671 226.195 478.845 225.778 478.845 225.342V211.28C478.845 210.844 478.671 210.427 478.363 210.119C478.055 209.811 477.636 209.638 477.2 209.637Z" fill="#6C63FF"/>
<path d="M506.778 113.742H492.691C492.256 113.743 491.839 113.917 491.532 114.225C491.225 114.533 491.053 114.95 491.053 115.384V129.453C491.053 129.887 491.225 130.303 491.533 130.609C491.84 130.916 492.257 131.089 492.691 131.089H506.778C507.213 131.089 507.63 130.917 507.939 130.61C508.247 130.303 508.421 129.887 508.422 129.453V115.384C508.421 114.949 508.247 114.532 507.939 114.224C507.631 113.916 507.213 113.743 506.778 113.742Z" fill="#E6E6E6"/>
<path d="M506.778 137.716H492.691C492.256 137.717 491.839 137.891 491.532 138.199C491.225 138.507 491.053 138.924 491.053 139.358V153.427C491.053 153.861 491.225 154.277 491.533 154.583C491.84 154.89 492.257 155.063 492.691 155.063H506.778C507.213 155.063 507.63 154.891 507.939 154.584C508.247 154.277 508.421 153.861 508.422 153.427V139.358C508.421 138.923 508.247 138.506 507.939 138.198C507.631 137.89 507.213 137.717 506.778 137.716Z" fill="#6C63FF"/>
<path d="M506.778 161.69H492.691C492.256 161.691 491.839 161.865 491.532 162.173C491.225 162.481 491.053 162.897 491.053 163.332V177.394C491.052 177.61 491.094 177.823 491.176 178.022C491.258 178.221 491.379 178.402 491.531 178.555C491.683 178.707 491.864 178.828 492.063 178.911C492.262 178.994 492.475 179.036 492.691 179.037H506.778C507.214 179.036 507.632 178.863 507.94 178.555C508.249 178.247 508.422 177.83 508.422 177.394V163.332C508.421 162.897 508.247 162.48 507.939 162.172C507.631 161.864 507.214 161.691 506.778 161.69Z" fill="#6C63FF"/>
<path d="M506.778 185.663H492.691C492.256 185.665 491.839 185.839 491.532 186.147C491.225 186.455 491.053 186.871 491.053 187.306V201.368C491.052 201.583 491.094 201.797 491.176 201.996C491.258 202.195 491.379 202.376 491.531 202.529C491.683 202.681 491.864 202.802 492.063 202.885C492.262 202.968 492.475 203.01 492.691 203.011H506.778C507.214 203.01 507.632 202.837 507.94 202.529C508.249 202.221 508.422 201.804 508.422 201.368V187.306C508.421 186.871 508.247 186.454 507.939 186.146C507.631 185.838 507.213 185.665 506.778 185.663Z" fill="#6C63FF"/>
<path d="M506.778 209.637H492.691C492.475 209.638 492.262 209.68 492.063 209.763C491.864 209.846 491.683 209.967 491.531 210.119C491.379 210.272 491.258 210.453 491.176 210.652C491.094 210.851 491.052 211.065 491.053 211.28V225.342C491.052 225.557 491.094 225.771 491.176 225.97C491.258 226.169 491.379 226.35 491.531 226.503C491.683 226.655 491.864 226.776 492.063 226.859C492.262 226.942 492.475 226.984 492.691 226.985H506.778C507.214 226.984 507.632 226.811 507.94 226.503C508.249 226.195 508.422 225.778 508.422 225.342V211.28C508.422 210.844 508.249 210.427 507.94 210.119C507.632 209.811 507.214 209.638 506.778 209.637Z" fill="#E6E6E6"/>
<path d="M536.355 113.742H522.269C521.834 113.743 521.417 113.917 521.11 114.225C520.803 114.533 520.63 114.95 520.63 115.384V129.453C520.63 129.887 520.803 130.303 521.11 130.609C521.418 130.916 521.834 131.089 522.269 131.089H536.355C536.791 131.089 537.208 130.917 537.516 130.61C537.825 130.303 537.998 129.887 538 129.453V115.384C537.999 114.949 537.825 114.532 537.517 114.224C537.209 113.916 536.791 113.743 536.355 113.742Z" fill="#E6E6E6"/>
<path d="M536.355 137.716H522.269C521.834 137.717 521.417 137.891 521.11 138.199C520.803 138.507 520.63 138.924 520.63 139.358V153.427C520.63 153.861 520.803 154.277 521.11 154.583C521.418 154.89 521.834 155.063 522.269 155.063H536.355C536.79 155.063 537.208 154.891 537.516 154.584C537.825 154.277 537.998 153.861 538 153.427V139.358C537.999 138.923 537.825 138.506 537.517 138.198C537.209 137.89 536.791 137.717 536.355 137.716Z" fill="#E6E6E6"/>
<path d="M536.355 161.69H522.269C521.834 161.691 521.417 161.865 521.11 162.173C520.803 162.481 520.63 162.897 520.63 163.332V177.394C520.63 177.61 520.672 177.823 520.754 178.022C520.836 178.221 520.956 178.402 521.108 178.555C521.261 178.707 521.441 178.828 521.641 178.911C521.84 178.994 522.053 179.036 522.269 179.037H536.355C536.791 179.036 537.21 178.863 537.518 178.555C537.826 178.247 538 177.83 538 177.394V163.332C537.999 162.897 537.825 162.48 537.517 162.172C537.209 161.864 536.791 161.691 536.355 161.69Z" fill="#6C63FF"/>
<path d="M536.355 185.663H522.269C521.834 185.665 521.417 185.839 521.11 186.147C520.803 186.455 520.63 186.871 520.63 187.306V201.368C520.63 201.583 520.672 201.797 520.754 201.996C520.836 202.195 520.956 202.376 521.108 202.529C521.261 202.681 521.441 202.802 521.641 202.885C521.84 202.968 522.053 203.01 522.269 203.011H536.355C536.791 203.01 537.21 202.837 537.518 202.529C537.826 202.221 538 201.804 538 201.368V187.306C537.999 186.871 537.825 186.454 537.517 186.146C537.209 185.838 536.791 185.665 536.355 185.663Z" fill="#E6E6E6"/>
<path d="M536.355 209.637H522.269C522.053 209.638 521.84 209.68 521.641 209.763C521.441 209.846 521.261 209.967 521.108 210.119C520.956 210.272 520.836 210.453 520.754 210.652C520.672 210.851 520.63 211.065 520.63 211.28V225.342C520.63 225.557 520.672 225.771 520.754 225.97C520.836 226.169 520.956 226.35 521.108 226.503C521.261 226.655 521.441 226.776 521.641 226.859C521.84 226.942 522.053 226.984 522.269 226.985H536.355C536.791 226.984 537.21 226.811 537.518 226.503C537.826 226.195 538 225.778 538 225.342V211.28C538 210.844 537.826 210.427 537.518 210.119C537.21 209.811 536.791 209.638 536.355 209.637Z" fill="#E6E6E6"/>
<path d="M212.594 416.97H212.202L212.537 416.926L212.594 416.97Z" fill="#2F2E41"/>
<path d="M178.892 154.807C202.759 154.807 222.108 135.483 222.108 111.646C222.108 87.8095 202.759 68.4858 178.892 68.4858C155.024 68.4858 135.675 87.8095 135.675 111.646C135.675 135.483 155.024 154.807 178.892 154.807Z" fill="#FFB6B6"/>
<path d="M216.738 80.0018C216.738 80.0018 228.041 58.4215 203.173 56.4596C203.173 56.4596 181.974 37.2538 160.366 52.9485C160.366 52.9485 148.579 52.9485 142.134 66.2688C142.134 66.2688 132.864 62.7577 130.827 72.1544C130.827 72.1544 124.044 91.7729 130.827 109.429C137.61 127.086 139.863 129.048 139.863 129.048C139.863 129.048 128.717 92.0299 155.848 90.068C182.978 88.1061 213.337 71.1735 215.598 92.7537C217.859 114.334 221.262 119.651 221.262 119.651C221.262 119.651 242.736 88.8301 216.738 80.0018Z" fill="#2F2E41"/>
<path d="M290.683 218.014L290.544 218.747L288.981 226.985L278.184 283.966L277.545 287.321L276.204 294.415L274.37 304.093L270.302 325.54L269.139 331.687L268.702 333.992L268.55 334.801L267.342 341.162L266.975 343.083L264.028 364.896L261.453 383.905L270.068 392.509L264.932 397.639L261.561 416.925L261.567 416.969H123.97C118.404 413.368 112.918 409.656 107.512 405.832L108.644 397.367C108.644 397.367 112.54 382.25 110.902 380.443C109.27 378.636 105.69 375.408 105.69 375.408L110.2 364.896L110.826 363.437L109.776 341.687L109.751 341.162L109.403 333.992L109.359 333.07L109.289 331.687L107.955 304.093L107.929 303.638L107.524 295.274L107.145 287.321L106.98 283.966L105.355 250.403L104.254 227.61L103.293 207.767L107.158 206.46L148.494 192.429L165.617 170.199L201.254 170.464L218.7 170.597L247.809 197.559L254.432 200.717L254.483 200.743L259.233 203.011L271.277 208.753L284.01 214.83L290.544 217.945L290.683 218.014Z" fill="#CACACA"/>
<path d="M170.222 352.218C167.611 353.229 164.809 353.655 162.015 353.467C159.221 353.279 156.502 352.482 154.049 351.131C151.597 349.78 149.471 347.908 147.821 345.648C146.172 343.388 145.038 340.794 144.501 338.049L77.098 328.499L100.529 302.028L160.944 315.155C165.621 314.56 170.355 315.698 174.248 318.355C178.141 321.012 180.923 325.002 182.067 329.571C183.21 334.139 182.636 338.968 180.453 343.142C178.27 347.316 174.63 350.546 170.222 352.218V352.218Z" fill="#FFB6B6"/>
<path d="M140.17 304.093C138.921 302.512 137.154 301.422 135.179 301.016L107.524 295.274L104.684 294.686C103.034 294.342 101.475 293.654 100.109 292.667C98.7429 291.679 97.6013 290.415 96.7585 288.957C95.8843 287.426 95.3554 285.722 95.2088 283.966C95.077 282.369 95.2684 280.762 95.7717 279.241L105.355 250.403L111.573 231.691C112.326 229.434 112.771 227.086 112.895 224.71C113.241 218.136 111.204 211.657 107.157 206.46C103.6 201.892 98.6649 198.588 93.0825 197.036C87.5 195.485 81.5658 195.768 76.1566 197.843C75.9985 197.9 75.834 197.963 75.6759 198.026C71.7967 199.573 68.3309 202 65.5524 205.115C62.7738 208.23 60.7587 211.947 59.6663 215.974L52.9107 240.516L38.9759 291.111C37.5809 296.18 37.2991 301.49 38.1497 306.678C39.0003 311.866 40.9633 316.81 43.9042 321.17C46.8451 325.53 50.6946 329.204 55.1891 331.94C59.6837 334.677 64.7171 336.411 69.9451 337.025L109.776 341.687L128.208 343.847C130.34 344.103 132.489 343.547 134.229 342.291C135.969 341.035 137.171 339.17 137.595 337.069C137.625 336.954 137.648 336.838 137.665 336.721L138.108 333.992L141.859 311.01L141.897 310.776C142.092 309.604 142.039 308.403 141.742 307.252C141.445 306.101 140.909 305.025 140.17 304.093Z" fill="#CACACA"/>
<path d="M213.155 352.955C215.883 353.588 218.717 353.615 221.457 353.036C224.197 352.456 226.776 351.283 229.013 349.601C231.25 347.918 233.091 345.766 234.405 343.296C235.719 340.826 236.475 338.098 236.619 335.305L302 316.357L275.065 293.451L217.108 314.956C212.393 315.024 207.867 316.818 204.388 319.997C200.909 323.175 198.718 327.518 198.231 332.202C197.744 336.886 198.994 341.586 201.745 345.411C204.495 349.236 208.555 351.92 213.155 352.955V352.955Z" fill="#FFB6B6"/>
<path d="M334.461 273.972L303.365 202.499C300.822 196.631 296.279 191.853 290.544 189.012C288.771 188.14 286.909 187.462 284.99 186.99C284.693 186.914 284.395 186.845 284.098 186.788C280.029 185.901 275.809 185.979 271.776 187.015C268.09 187.961 264.644 189.673 261.664 192.038C258.684 194.403 256.237 197.369 254.483 200.743C254.463 200.771 254.446 200.8 254.432 200.831C252.472 204.618 251.43 208.812 251.389 213.075C251.348 217.337 252.31 221.55 254.198 225.374L254.584 226.144L276.558 270.22C277.309 271.727 277.731 273.376 277.799 275.057C277.866 276.739 277.577 278.416 276.95 279.979C276.323 281.541 275.372 282.953 274.16 284.123C272.948 285.292 271.502 286.193 269.917 286.765L268.373 287.321L240.617 297.333C238.535 298.076 236.821 299.596 235.839 301.574C234.856 303.553 234.68 305.835 235.348 307.94L235.418 308.161L243.198 333.026C243.236 333.14 243.274 333.253 243.318 333.367C243.387 333.581 243.471 333.79 243.571 333.992C244.398 335.844 245.86 337.341 247.693 338.213C249.526 339.085 251.611 339.275 253.572 338.749L268.55 334.801L271.605 333.992L310.285 323.79C315.375 322.447 320.114 320.021 324.177 316.679C328.241 313.337 331.533 309.157 333.829 304.426C336.125 299.695 337.37 294.524 337.479 289.268C337.588 284.012 336.559 278.794 334.461 273.972L334.461 273.972Z" fill="#CACACA"/>
<path d="M28.3998 333.992C37.3632 344.911 47.0299 355.234 57.3386 364.896H343.228C345.982 364.901 348.623 365.996 350.57 367.941C352.517 369.887 353.612 372.525 353.614 375.276L354.025 447.627C371.613 439.557 388.084 429.253 403.028 416.969C407.178 413.564 411.199 410.012 415.091 406.312C417.64 403.899 420.128 401.427 422.555 398.896C440.749 379.966 455.482 358 466.086 333.992H28.3998Z" fill="#3F3D56"/>
<path d="M422.555 398.896C420.132 401.429 417.644 403.901 415.091 406.312H354.234V398.896H422.555Z" fill="white"/>
<path d="M290.114 161.69C289.813 161.135 289.368 160.673 288.826 160.35C288.284 160.028 287.664 159.857 287.033 159.858H79.6609C78.7312 159.86 77.8403 160.23 77.1835 160.888C76.5266 161.545 76.1574 162.435 76.1566 163.364V287.321H290.544V163.364C290.547 162.778 290.399 162.201 290.114 161.69Z" fill="#3F3D56"/>
<path d="M75.9689 283.965V299.261C75.9689 299.895 76.0939 300.523 76.3369 301.109C76.5799 301.695 76.936 302.227 77.385 302.676C77.834 303.124 78.367 303.48 78.9536 303.722C79.5402 303.965 80.169 304.09 80.8039 304.09H159.933V334.278H158.881C158.799 334.278 158.717 334.294 158.641 334.326C158.565 334.357 158.496 334.403 158.437 334.462C158.379 334.52 158.333 334.589 158.301 334.665C158.27 334.741 158.253 334.823 158.253 334.905V337.005C158.253 337.087 158.27 337.169 158.301 337.245C158.333 337.321 158.379 337.39 158.437 337.448C158.496 337.507 158.565 337.553 158.641 337.584C158.717 337.616 158.799 337.632 158.881 337.632H208.004C208.086 337.632 208.168 337.616 208.244 337.584C208.32 337.553 208.389 337.507 208.448 337.448C208.506 337.39 208.552 337.321 208.584 337.245C208.615 337.169 208.632 337.087 208.632 337.005V334.905C208.632 334.823 208.615 334.741 208.584 334.665C208.552 334.589 208.506 334.52 208.448 334.462C208.389 334.403 208.32 334.357 208.244 334.326C208.168 334.294 208.086 334.278 208.004 334.278H206.952V304.09H286.081C286.716 304.09 287.345 303.965 287.931 303.722C288.518 303.48 289.051 303.124 289.5 302.676C289.949 302.227 290.305 301.695 290.548 301.109C290.791 300.523 290.916 299.895 290.916 299.261V283.965H75.9689Z" fill="#3F3D56"/>
<path d="M180.845 240.062C191.782 240.062 200.648 231.207 200.648 220.285C200.648 209.362 191.782 200.508 180.845 200.508C169.909 200.508 161.043 209.362 161.043 220.285C161.043 231.207 169.909 240.062 180.845 240.062Z" fill="#6C63FF"/>
<path d="M231.3 109.288H228.137C228.137 85.4089 204.474 69.761 180.602 69.7484C177.13 69.7383 173.665 70.0748 170.26 70.7528C166.427 71.5172 162.448 72.4332 158.539 73.6272C143.124 78.3462 128.828 87.4683 128.828 109.288C128.825 113.526 129.365 117.746 130.435 121.847L127.373 122.643C126.238 118.282 125.664 113.794 125.666 109.288C125.666 90.2226 133.503 77.1269 147.039 69.3188C154.155 65.2126 162.84 62.5657 172.79 61.277C176.93 60.7269 181.116 60.5999 185.283 60.898C212.735 62.8689 231.3 83.8927 231.3 109.288Z" fill="#6C63FF"/>
<path d="M236.569 111.038L235.323 101.84C235.015 99.5171 233.895 97.3778 232.16 95.8007C231.046 94.7725 229.713 94.0108 228.261 93.573C226.809 93.1352 225.276 93.0329 223.779 93.2738L221.799 93.5454C221.257 93.6166 220.735 93.7946 220.263 94.069C219.791 94.3433 219.377 94.7086 219.048 95.1437C218.715 95.5773 218.472 96.0724 218.332 96.6004C218.191 97.1285 218.158 97.679 218.232 98.2202L221.11 119.408C221.228 120.272 221.616 121.076 222.217 121.708C222.819 122.339 223.604 122.766 224.462 122.927C224.716 122.978 224.975 123.003 225.234 123.003C225.42 123.003 225.606 122.99 225.791 122.965L228.004 122.668C229.354 122.489 230.653 122.036 231.821 121.338C232.99 120.639 234.003 119.71 234.798 118.606C234.969 118.366 235.133 118.12 235.285 117.867C236.47 115.8 236.923 113.394 236.569 111.038Z" fill="#6C63FF"/>
<path d="M220.521 93.9308C219.941 94.2126 219.436 94.6284 219.048 95.1437C218.715 95.5773 218.472 96.0724 218.332 96.6005C218.191 97.1285 218.158 97.679 218.232 98.2202L221.11 119.408C221.228 120.272 221.616 121.076 222.217 121.708C222.819 122.339 223.604 122.766 224.462 122.927L220.521 93.9308Z" fill="white"/>
<path d="M236.569 111.038L235.323 101.84C235.016 99.5171 233.895 97.3778 232.16 95.8007L235.026 116.881C235.069 117.22 235.156 117.551 235.285 117.867C236.471 115.8 236.923 113.394 236.569 111.038Z" fill="#3F3D56"/>
<path d="M226.721 117.665C227.586 117.548 228.021 115.491 227.692 113.071C227.364 110.651 226.396 108.784 225.53 108.901C224.665 109.019 224.23 111.075 224.558 113.495C224.887 115.916 225.855 117.782 226.721 117.665Z" fill="#3F3D56"/>
<path d="M224.823 106.294C225.688 106.177 226.123 104.12 225.795 101.7C225.466 99.2798 224.498 97.413 223.632 97.5302C222.767 97.6475 222.332 99.7044 222.661 102.124C222.989 104.545 223.957 106.411 224.823 106.294Z" fill="#3F3D56"/>
<path d="M236.841 110.716C237.707 110.599 238.142 108.542 237.813 106.122C237.484 103.702 236.516 101.835 235.651 101.952C234.785 102.07 234.35 104.126 234.679 106.547C235.008 108.967 235.976 110.833 236.841 110.716Z" fill="#3F3D56"/>
<path d="M180.602 69.7484C177.13 69.7383 173.665 70.0747 170.26 70.7528C166.427 71.5172 162.448 72.4332 158.539 73.6272C152.435 73.3303 147.944 71.751 147.039 69.3188C154.155 65.2126 162.84 62.5657 172.79 61.277C176.93 60.7268 181.116 60.5998 185.283 60.8979C185.724 61.1562 186.105 61.5047 186.402 61.9206C186.698 62.3365 186.903 62.8104 187.003 63.3111C187.3 65.5095 184.789 67.8469 180.602 69.7484Z" fill="#3F3D56"/>
<path d="M140.22 131.209L135.35 110.987C135.176 110.258 134.79 109.596 134.241 109.084C133.692 108.573 133.004 108.235 132.263 108.113C132.054 108.081 131.842 108.064 131.63 108.062C131.332 108.064 131.035 108.1 130.745 108.17L128.86 108.625C126.433 109.211 124.338 110.735 123.035 112.862C121.731 114.989 121.326 117.545 121.908 119.971L124.091 129.042C124.589 131.178 125.776 133.091 127.468 134.488C127.743 134.709 128.03 134.913 128.329 135.1C129.389 135.764 130.572 136.209 131.807 136.408C133.042 136.608 134.305 136.559 135.521 136.263L137.399 135.808C137.896 135.692 138.363 135.475 138.772 135.17C139.379 134.727 139.841 134.115 140.099 133.409C140.357 132.704 140.399 131.938 140.22 131.209Z" fill="#6C63FF"/>
<path d="M130.01 127.446C130.859 127.242 131.083 125.152 130.511 122.778C129.939 120.403 128.787 118.644 127.938 118.848C127.089 119.052 126.864 121.142 127.436 123.517C128.008 125.891 129.161 127.65 130.01 127.446Z" fill="#3F3D56"/>
<path d="M123.684 129.342C124.533 129.138 124.758 127.047 124.186 124.673C123.614 122.298 122.462 120.539 121.612 120.743C120.763 120.947 120.539 123.037 121.111 125.412C121.683 127.786 122.835 129.546 123.684 129.342Z" fill="#3F3D56"/>
<path d="M140.53 131.133L135.66 110.912C135.47 110.122 135.051 109.406 134.456 108.853C133.861 108.301 133.116 107.935 132.314 107.803L138.962 135.422C139.618 134.942 140.118 134.279 140.397 133.515C140.676 132.752 140.722 131.923 140.53 131.133Z" fill="white"/>
<path d="M123.009 115.965C122.875 115.403 122.622 114.876 122.269 114.418C121.584 116.188 121.458 118.126 121.908 119.97L124.091 129.042C124.589 131.178 125.776 133.091 127.468 134.488L123.009 115.965Z" fill="#3F3D56"/>
</g>
<defs>
<clipPath id="clip0_21_96">
<rect width="538" height="468" fill="white"/>
</clipPath>
</defs>
</svg>
