<svg width="564" height="483" viewBox="0 0 564 483" fill="none" xmlns="http://www.w3.org/2000/svg">
<g clip-path="url(#clip0_30_128)">
<path d="M46.412 115.295H308.97V201.434H299.024V223.962L276.482 201.434H46.412V115.295Z" fill="#E6E6E6"/>
<path d="M301.676 123.683H53.705V192.594H301.676V123.683Z" fill="white"/>
<path d="M193.038 143.802H73.6458V147.423H193.038V143.802Z" fill="#6C63FF"/>
<path d="M281.736 156.328H73.6458V159.949H281.736V156.328Z" fill="#E6E6E6"/>
<path d="M281.532 168.854H73.6458V172.475H281.532V168.854Z" fill="#E6E6E6"/>
<path d="M262.558 230.588H0V316.728H9.94543V339.257L32.488 316.728H262.558V230.588Z" fill="#E6E6E6"/>
<path d="M255.265 238.977H7.29327V307.889H255.265V238.977Z" fill="white"/>
<path d="M148.615 259.759H29.2231V263.38H148.615V259.759Z" fill="#6C63FF"/>
<path d="M237.313 272.285H29.2231V275.906H237.313V272.285Z" fill="#E6E6E6"/>
<path d="M237.109 284.811H29.2231V288.432H237.109V284.811Z" fill="#E6E6E6"/>
<path d="M262.558 0H0V86.1393H9.94543V108.668L32.488 86.1393H262.558V0Z" fill="#E6E6E6"/>
<path d="M255.265 8.38843H7.29327V77.3H255.265V8.38843Z" fill="white"/>
<path d="M148.615 29.1702H29.2231V32.7911H148.615V29.1702Z" fill="#6C63FF"/>
<path d="M237.313 41.6963H29.2231V45.3173H237.313V41.6963Z" fill="#E6E6E6"/>
<path d="M237.109 54.2224H29.2231V57.8434H237.109V54.2224Z" fill="#E6E6E6"/>
<path d="M461.291 471.994L450.485 471.994L445.344 430.337L461.293 430.339L461.291 471.994Z" fill="#FFB8B8"/>
<path d="M464.047 482.463L429.203 482.461V482.021C429.203 478.426 430.632 474.979 433.176 472.437C435.719 469.895 439.168 468.467 442.765 468.467H442.766L464.048 468.468L464.047 482.463Z" fill="#2F2E41"/>
<path d="M446.097 440.675L436.042 444.629L415.994 407.748L430.836 401.912L446.097 440.675Z" fill="#FFB8B8"/>
<path d="M452.498 449.408L420.073 462.158L419.912 461.748C418.595 458.403 418.662 454.673 420.097 451.377C421.532 448.081 424.219 445.489 427.566 444.173L427.567 444.172L447.371 436.385L452.498 449.408Z" fill="#2F2E41"/>
<path d="M442.804 458.459L446.245 332.081L430.933 386.258L441.997 423.85L423.642 439.441L404.933 379.786L404.9 379.681L423.496 281.451L478.493 278.792L478.886 278.772L478.949 279.161C479.002 279.488 484.199 312.103 479.829 335.689C475.475 359.185 464.955 458.858 464.849 459.863L464.804 460.291L442.804 458.459Z" fill="#2F2E41"/>
<path d="M426.345 289.33L426.034 289.206L436.24 195.634L436.538 195.559C446.911 192.967 460.886 193.194 468.294 193.559C469.417 193.617 470.485 194.06 471.32 194.813C472.154 195.566 472.704 196.583 472.876 197.694L485.146 278.459L485.045 278.604C476.562 290.714 463.6 294.007 452.01 294.007C443.253 293.894 434.577 292.314 426.345 289.33Z" fill="#6C63FF"/>
<path d="M474.948 316.668L474.579 316.635L468.061 193.317L487.869 197.788C490.033 198.284 491.935 199.566 493.206 201.385C494.477 203.204 495.025 205.43 494.745 207.631L492.176 228.129L493.056 264.191C493.67 266.406 503.699 303.1 498.127 312.661C497.846 313.203 497.455 313.681 496.981 314.065C496.506 314.45 495.957 314.732 495.368 314.895C490.018 316.18 484.534 316.821 479.032 316.806C476.531 316.805 474.987 316.672 474.948 316.668Z" fill="#3F3D56"/>
<path d="M416.615 317.504C415.652 317.073 414.799 316.43 414.119 315.623C413.44 314.816 412.951 313.866 412.69 312.844C411.4 307.651 415.757 301.12 416.386 300.213L421.656 250.176L413.817 203.951C413.683 203.161 413.712 202.351 413.902 201.572C414.092 200.793 414.439 200.061 414.922 199.42C415.405 198.78 416.013 198.245 416.71 197.848C417.408 197.451 418.178 197.2 418.976 197.111L441.306 194.623L440.172 242.175C449.756 274.549 428.885 321.228 428.673 321.696L428.555 321.955H428.271C428.159 321.955 425.422 321.905 416.615 317.504Z" fill="#3F3D56"/>
<path d="M462.5 182.475C472.991 176.743 476.847 163.597 471.112 153.112C465.377 142.628 452.223 138.774 441.731 144.506C431.24 150.237 427.384 163.383 433.119 173.868C438.854 184.353 452.008 188.206 462.5 182.475Z" fill="#FFB8B8"/>
<path d="M476.905 294.351C476.711 293.159 476.78 291.939 477.108 290.777C477.436 289.615 478.015 288.538 478.804 287.624C479.594 286.71 480.574 285.98 481.676 285.485C482.779 284.99 483.976 284.743 485.184 284.761L492.678 267.434L504.325 269.417L493.398 293.737C493.234 295.763 492.331 297.659 490.862 299.065C489.392 300.471 487.458 301.289 485.425 301.365C483.392 301.441 481.401 300.768 479.831 299.476C478.261 298.183 477.22 296.359 476.905 294.351V294.351Z" fill="#FFB8B8"/>
<path d="M487.456 278.474L493.644 241.369L483.074 223.763L485.767 198.645L486.367 198.495C488.371 198.001 490.485 198.21 492.353 199.088C494.222 199.965 495.731 201.459 496.628 203.317L513.895 239.329L513.964 239.473L501.423 288.71L487.456 278.474Z" fill="#3F3D56"/>
<path d="M466.305 180.937C466.8 181.08 468.877 178.735 471.153 175.924C473.543 172.993 475.267 169.579 476.208 165.918C477.148 162.256 477.281 158.434 476.598 154.715C476.567 154.548 476.535 154.389 476.504 154.24C475.75 150.656 472.33 147.356 468.746 148.115C469.016 144.94 466.877 141.95 464.165 140.274C461.454 138.599 458.241 137.977 455.108 137.387C451.534 136.713 447.915 136.036 444.285 136.265C440.785 136.481 437.393 137.563 434.416 139.416C430.8 141.793 428.015 145.236 426.447 149.268C424.879 153.299 424.606 157.719 425.666 161.912C430.227 156.736 435.633 151.105 443.446 153.349C445.215 153.875 446.865 154.738 448.307 155.89C453.055 159.617 455.443 165.106 457.752 170.469C458.905 167.534 463.185 166.43 465.616 168.44C467.176 169.73 467.819 171.875 467.76 173.898C467.597 175.919 467.13 177.903 466.373 179.785" fill="#2F2E41"/>
<path d="M463.513 261.766H462.495V257.761C462.493 256.574 462.021 255.436 461.181 254.596C460.341 253.757 459.202 253.285 458.014 253.283H445.246C444.058 253.285 442.919 253.757 442.079 254.596C441.239 255.436 440.766 256.574 440.765 257.761V285.451C440.766 286.639 441.239 287.777 442.079 288.616C442.919 289.456 444.058 289.928 445.246 289.929H458.014C459.202 289.928 460.341 289.456 461.181 288.616C462.021 287.777 462.493 286.639 462.495 285.451V266.517H463.513V261.766Z" fill="#2F2E41"/>
<path d="M451.969 269.231C453.47 269.231 454.686 268.016 454.686 266.517C454.686 265.018 453.47 263.802 451.969 263.802C450.469 263.802 449.253 265.018 449.253 266.517C449.253 268.016 450.469 269.231 451.969 269.231Z" fill="white"/>
<path d="M454.186 277.333C453.669 276.241 452.919 275.276 451.989 274.506C451.059 273.735 449.971 273.178 448.802 272.873C447.632 272.568 446.41 272.523 445.222 272.741C444.034 272.959 442.907 273.434 441.923 274.135L425.912 264.121L417.45 272.361L440.259 286.184C441.546 287.759 443.365 288.808 445.374 289.132C447.382 289.455 449.44 289.032 451.156 287.941C452.873 286.85 454.13 285.167 454.688 283.212C455.246 281.257 455.068 279.165 454.186 277.333Z" fill="#FFB8B8"/>
<path d="M396.92 258.258L411.571 202.946C411.956 201.516 412.863 200.283 414.113 199.489C415.364 198.696 416.866 198.398 418.324 198.657L423.361 199.572L428.729 229.074L417.813 253.941L437.559 265.788L434.782 287.987L396.92 258.258Z" fill="#3F3D56"/>
<path d="M563.321 483H304.601C304.421 483 304.248 482.928 304.121 482.801C303.994 482.674 303.922 482.501 303.922 482.321C303.922 482.141 303.994 481.969 304.121 481.841C304.248 481.714 304.421 481.643 304.601 481.643H563.321C563.501 481.643 563.674 481.714 563.801 481.841C563.928 481.969 564 482.141 564 482.321C564 482.501 563.928 482.674 563.801 482.801C563.674 482.928 563.501 483 563.321 483Z" fill="#3F3D56"/>
</g>
<defs>
<clipPath id="clip0_30_128">
<rect width="564" height="483" fill="white"/>
</clipPath>
</defs>
</svg>
