<svg width="900" height="507" viewBox="0 0 900 507" fill="none" xmlns="http://www.w3.org/2000/svg">
<path d="M900 0H0V507H900V0Z" fill="#0F4B82"/>
<path d="M446.73 187.736H454.322C454.17 190.225 453.484 192.434 452.266 194.363C451.064 196.293 449.38 197.799 447.213 198.883C445.063 199.966 442.473 200.508 439.443 200.508C437.074 200.508 434.949 200.102 433.07 199.289C431.191 198.46 429.583 197.275 428.246 195.734C426.926 194.194 425.919 192.332 425.225 190.148C424.531 187.965 424.184 185.519 424.184 182.811V180.246C424.184 177.538 424.539 175.092 425.25 172.908C425.978 170.708 427.01 168.837 428.348 167.297C429.702 165.757 431.318 164.572 433.197 163.742C435.076 162.913 437.175 162.498 439.494 162.498C442.575 162.498 445.173 163.057 447.289 164.174C449.422 165.291 451.072 166.831 452.24 168.795C453.425 170.758 454.136 172.993 454.373 175.498H446.756C446.671 174.008 446.375 172.747 445.867 171.715C445.359 170.665 444.589 169.878 443.557 169.354C442.541 168.812 441.187 168.541 439.494 168.541C438.225 168.541 437.116 168.778 436.168 169.252C435.22 169.726 434.424 170.445 433.781 171.41C433.138 172.375 432.656 173.594 432.334 175.066C432.029 176.522 431.877 178.232 431.877 180.195V182.811C431.877 184.723 432.021 186.408 432.309 187.863C432.596 189.302 433.036 190.521 433.629 191.52C434.238 192.501 435.017 193.246 435.965 193.754C436.93 194.245 438.089 194.49 439.443 194.49C441.035 194.49 442.346 194.236 443.379 193.729C444.411 193.221 445.199 192.467 445.74 191.469C446.299 190.47 446.629 189.226 446.73 187.736ZM457.699 186.543V186.01C457.699 183.995 457.987 182.142 458.562 180.449C459.138 178.74 459.976 177.258 461.076 176.006C462.176 174.753 463.531 173.78 465.139 173.086C466.747 172.375 468.592 172.02 470.674 172.02C472.756 172.02 474.609 172.375 476.234 173.086C477.859 173.78 479.222 174.753 480.322 176.006C481.439 177.258 482.286 178.74 482.861 180.449C483.437 182.142 483.725 183.995 483.725 186.01V186.543C483.725 188.54 483.437 190.394 482.861 192.104C482.286 193.796 481.439 195.277 480.322 196.547C479.222 197.799 477.868 198.773 476.26 199.467C474.652 200.161 472.807 200.508 470.725 200.508C468.643 200.508 466.789 200.161 465.164 199.467C463.556 198.773 462.193 197.799 461.076 196.547C459.976 195.277 459.138 193.796 458.562 192.104C457.987 190.394 457.699 188.54 457.699 186.543ZM465.012 186.01V186.543C465.012 187.694 465.113 188.769 465.316 189.768C465.52 190.766 465.841 191.646 466.281 192.408C466.738 193.153 467.331 193.737 468.059 194.16C468.786 194.583 469.675 194.795 470.725 194.795C471.74 194.795 472.612 194.583 473.34 194.16C474.068 193.737 474.652 193.153 475.092 192.408C475.532 191.646 475.854 190.766 476.057 189.768C476.277 188.769 476.387 187.694 476.387 186.543V186.01C476.387 184.893 476.277 183.843 476.057 182.861C475.854 181.863 475.523 180.982 475.066 180.221C474.626 179.442 474.042 178.833 473.314 178.393C472.587 177.952 471.706 177.732 470.674 177.732C469.641 177.732 468.761 177.952 468.033 178.393C467.322 178.833 466.738 179.442 466.281 180.221C465.841 180.982 465.52 181.863 465.316 182.861C465.113 183.843 465.012 184.893 465.012 186.01ZM495.531 178.215V200H488.193V172.527H495.074L495.531 178.215ZM494.516 185.299H492.484C492.484 183.386 492.713 181.626 493.17 180.018C493.644 178.393 494.329 176.988 495.227 175.803C496.141 174.601 497.266 173.67 498.604 173.01C499.941 172.35 501.49 172.02 503.25 172.02C504.469 172.02 505.586 172.206 506.602 172.578C507.617 172.934 508.489 173.501 509.217 174.279C509.962 175.041 510.537 176.04 510.943 177.275C511.35 178.494 511.553 179.958 511.553 181.668V200H504.24V182.48C504.24 181.228 504.071 180.263 503.732 179.586C503.394 178.909 502.911 178.435 502.285 178.164C501.676 177.893 500.939 177.758 500.076 177.758C499.128 177.758 498.299 177.952 497.588 178.342C496.894 178.731 496.318 179.273 495.861 179.967C495.404 180.644 495.066 181.439 494.846 182.354C494.626 183.268 494.516 184.249 494.516 185.299ZM510.867 184.461L508.252 184.791C508.252 182.997 508.472 181.329 508.912 179.789C509.369 178.249 510.038 176.895 510.918 175.727C511.815 174.559 512.924 173.653 514.244 173.01C515.564 172.35 517.088 172.02 518.814 172.02C520.135 172.02 521.337 172.214 522.42 172.604C523.503 172.976 524.426 173.577 525.188 174.406C525.966 175.219 526.559 176.285 526.965 177.605C527.388 178.926 527.6 180.542 527.6 182.455V200H520.262V182.455C520.262 181.186 520.092 180.221 519.754 179.561C519.432 178.883 518.958 178.418 518.332 178.164C517.723 177.893 516.995 177.758 516.148 177.758C515.268 177.758 514.498 177.936 513.838 178.291C513.178 178.63 512.628 179.104 512.188 179.713C511.747 180.322 511.417 181.033 511.197 181.846C510.977 182.641 510.867 183.513 510.867 184.461ZM532.094 186.543V186.01C532.094 183.995 532.382 182.142 532.957 180.449C533.533 178.74 534.37 177.258 535.471 176.006C536.571 174.753 537.925 173.78 539.533 173.086C541.141 172.375 542.986 172.02 545.068 172.02C547.15 172.02 549.004 172.375 550.629 173.086C552.254 173.78 553.617 174.753 554.717 176.006C555.834 177.258 556.68 178.74 557.256 180.449C557.831 182.142 558.119 183.995 558.119 186.01V186.543C558.119 188.54 557.831 190.394 557.256 192.104C556.68 193.796 555.834 195.277 554.717 196.547C553.617 197.799 552.262 198.773 550.654 199.467C549.046 200.161 547.201 200.508 545.119 200.508C543.037 200.508 541.184 200.161 539.559 199.467C537.951 198.773 536.588 197.799 535.471 196.547C534.37 195.277 533.533 193.796 532.957 192.104C532.382 190.394 532.094 188.54 532.094 186.543ZM539.406 186.01V186.543C539.406 187.694 539.508 188.769 539.711 189.768C539.914 190.766 540.236 191.646 540.676 192.408C541.133 193.153 541.725 193.737 542.453 194.16C543.181 194.583 544.07 194.795 545.119 194.795C546.135 194.795 547.007 194.583 547.734 194.16C548.462 193.737 549.046 193.153 549.486 192.408C549.926 191.646 550.248 190.766 550.451 189.768C550.671 188.769 550.781 187.694 550.781 186.543V186.01C550.781 184.893 550.671 183.843 550.451 182.861C550.248 181.863 549.918 180.982 549.461 180.221C549.021 179.442 548.437 178.833 547.709 178.393C546.981 177.952 546.101 177.732 545.068 177.732C544.036 177.732 543.156 177.952 542.428 178.393C541.717 178.833 541.133 179.442 540.676 180.221C540.236 180.982 539.914 181.863 539.711 182.861C539.508 183.843 539.406 184.893 539.406 186.01ZM582.875 177.809V210.562H575.562V172.527H582.342L582.875 177.809ZM600.268 185.959V186.492C600.268 188.49 600.031 190.343 599.557 192.053C599.1 193.762 598.423 195.252 597.525 196.521C596.628 197.774 595.511 198.756 594.174 199.467C592.854 200.161 591.33 200.508 589.604 200.508C587.928 200.508 586.472 200.169 585.236 199.492C584.001 198.815 582.96 197.867 582.113 196.648C581.284 195.413 580.615 193.982 580.107 192.357C579.6 190.732 579.21 188.989 578.939 187.127V185.73C579.21 183.733 579.6 181.905 580.107 180.246C580.615 178.57 581.284 177.123 582.113 175.904C582.96 174.669 583.992 173.712 585.211 173.035C586.447 172.358 587.894 172.02 589.553 172.02C591.296 172.02 592.828 172.35 594.148 173.01C595.486 173.67 596.603 174.618 597.5 175.854C598.414 177.089 599.1 178.562 599.557 180.271C600.031 181.981 600.268 183.877 600.268 185.959ZM592.93 186.492V185.959C592.93 184.791 592.828 183.716 592.625 182.734C592.439 181.736 592.134 180.864 591.711 180.119C591.305 179.374 590.763 178.799 590.086 178.393C589.426 177.969 588.622 177.758 587.674 177.758C586.675 177.758 585.82 177.919 585.109 178.24C584.415 178.562 583.848 179.027 583.408 179.637C582.968 180.246 582.638 180.974 582.418 181.82C582.198 182.667 582.062 183.623 582.012 184.689V188.219C582.096 189.471 582.333 190.597 582.723 191.596C583.112 192.577 583.713 193.356 584.525 193.932C585.338 194.507 586.404 194.795 587.725 194.795C588.689 194.795 589.502 194.583 590.162 194.16C590.822 193.72 591.355 193.119 591.762 192.357C592.185 191.596 592.481 190.715 592.65 189.717C592.837 188.718 592.93 187.643 592.93 186.492ZM617.457 200.508C615.324 200.508 613.411 200.169 611.719 199.492C610.026 198.798 608.587 197.842 607.402 196.623C606.234 195.404 605.337 193.991 604.711 192.383C604.085 190.758 603.771 189.031 603.771 187.203V186.188C603.771 184.105 604.068 182.201 604.66 180.475C605.253 178.748 606.099 177.25 607.199 175.98C608.316 174.711 609.671 173.738 611.262 173.061C612.853 172.367 614.647 172.02 616.645 172.02C618.591 172.02 620.318 172.341 621.824 172.984C623.331 173.628 624.592 174.542 625.607 175.727C626.64 176.911 627.419 178.333 627.943 179.992C628.468 181.634 628.73 183.462 628.73 185.477V188.523H606.895V183.648H621.545V183.09C621.545 182.074 621.359 181.169 620.986 180.373C620.631 179.561 620.089 178.917 619.361 178.443C618.633 177.969 617.702 177.732 616.568 177.732C615.604 177.732 614.774 177.944 614.08 178.367C613.386 178.79 612.819 179.383 612.379 180.145C611.956 180.906 611.634 181.803 611.414 182.836C611.211 183.852 611.109 184.969 611.109 186.188V187.203C611.109 188.303 611.262 189.319 611.566 190.25C611.888 191.181 612.337 191.985 612.912 192.662C613.505 193.339 614.215 193.864 615.045 194.236C615.891 194.609 616.848 194.795 617.914 194.795C619.234 194.795 620.462 194.541 621.596 194.033C622.747 193.508 623.737 192.721 624.566 191.672L628.121 195.531C627.546 196.361 626.758 197.156 625.76 197.918C624.778 198.68 623.593 199.306 622.205 199.797C620.817 200.271 619.234 200.508 617.457 200.508ZM640.207 178.52V200H632.895V172.527H639.775L640.207 178.52ZM648.484 172.35L648.357 179.129C648.002 179.078 647.57 179.036 647.062 179.002C646.572 178.951 646.123 178.926 645.717 178.926C644.684 178.926 643.787 179.061 643.025 179.332C642.281 179.586 641.654 179.967 641.146 180.475C640.656 180.982 640.283 181.6 640.029 182.328C639.792 183.056 639.657 183.885 639.623 184.816L638.15 184.359C638.15 182.582 638.328 180.949 638.684 179.459C639.039 177.952 639.555 176.641 640.232 175.523C640.926 174.406 641.773 173.543 642.771 172.934C643.77 172.324 644.913 172.02 646.199 172.02C646.605 172.02 647.02 172.053 647.443 172.121C647.867 172.172 648.214 172.248 648.484 172.35ZM666.791 192.408C666.791 191.883 666.639 191.41 666.334 190.986C666.029 190.563 665.462 190.174 664.633 189.818C663.82 189.446 662.644 189.107 661.104 188.803C659.715 188.498 658.421 188.117 657.219 187.66C656.034 187.186 655.001 186.619 654.121 185.959C653.258 185.299 652.581 184.52 652.09 183.623C651.599 182.709 651.354 181.668 651.354 180.5C651.354 179.349 651.599 178.266 652.09 177.25C652.598 176.234 653.317 175.337 654.248 174.559C655.196 173.763 656.347 173.145 657.701 172.705C659.072 172.248 660.613 172.02 662.322 172.02C664.709 172.02 666.757 172.4 668.467 173.162C670.193 173.924 671.514 174.973 672.428 176.311C673.359 177.631 673.824 179.137 673.824 180.83H666.512C666.512 180.119 666.359 179.484 666.055 178.926C665.767 178.35 665.31 177.902 664.684 177.58C664.074 177.242 663.279 177.072 662.297 177.072C661.484 177.072 660.782 177.216 660.189 177.504C659.597 177.775 659.14 178.147 658.818 178.621C658.514 179.078 658.361 179.586 658.361 180.145C658.361 180.568 658.446 180.949 658.615 181.287C658.801 181.609 659.098 181.905 659.504 182.176C659.91 182.447 660.435 182.701 661.078 182.938C661.738 183.158 662.551 183.361 663.516 183.547C665.496 183.953 667.265 184.486 668.822 185.146C670.38 185.79 671.615 186.67 672.529 187.787C673.443 188.887 673.9 190.335 673.9 192.129C673.9 193.348 673.63 194.465 673.088 195.48C672.546 196.496 671.768 197.385 670.752 198.146C669.736 198.891 668.518 199.475 667.096 199.898C665.691 200.305 664.108 200.508 662.348 200.508C659.792 200.508 657.625 200.051 655.848 199.137C654.087 198.223 652.75 197.063 651.836 195.658C650.939 194.236 650.49 192.781 650.49 191.291H657.422C657.456 192.29 657.71 193.094 658.184 193.703C658.674 194.312 659.292 194.753 660.037 195.023C660.799 195.294 661.62 195.43 662.5 195.43C663.448 195.43 664.235 195.303 664.861 195.049C665.488 194.778 665.962 194.423 666.283 193.982C666.622 193.525 666.791 193.001 666.791 192.408ZM677.48 186.543V186.01C677.48 183.995 677.768 182.142 678.344 180.449C678.919 178.74 679.757 177.258 680.857 176.006C681.958 174.753 683.312 173.78 684.92 173.086C686.528 172.375 688.373 172.02 690.455 172.02C692.537 172.02 694.391 172.375 696.016 173.086C697.641 173.78 699.003 174.753 700.104 176.006C701.221 177.258 702.067 178.74 702.643 180.449C703.218 182.142 703.506 183.995 703.506 186.01V186.543C703.506 188.54 703.218 190.394 702.643 192.104C702.067 193.796 701.221 195.277 700.104 196.547C699.003 197.799 697.649 198.773 696.041 199.467C694.433 200.161 692.588 200.508 690.506 200.508C688.424 200.508 686.57 200.161 684.945 199.467C683.337 198.773 681.975 197.799 680.857 196.547C679.757 195.277 678.919 193.796 678.344 192.104C677.768 190.394 677.48 188.54 677.48 186.543ZM684.793 186.01V186.543C684.793 187.694 684.895 188.769 685.098 189.768C685.301 190.766 685.622 191.646 686.062 192.408C686.52 193.153 687.112 193.737 687.84 194.16C688.568 194.583 689.456 194.795 690.506 194.795C691.521 194.795 692.393 194.583 693.121 194.16C693.849 193.737 694.433 193.153 694.873 192.408C695.313 191.646 695.635 190.766 695.838 189.768C696.058 188.769 696.168 187.694 696.168 186.543V186.01C696.168 184.893 696.058 183.843 695.838 182.861C695.635 181.863 695.305 180.982 694.848 180.221C694.408 179.442 693.824 178.833 693.096 178.393C692.368 177.952 691.488 177.732 690.455 177.732C689.423 177.732 688.542 177.952 687.814 178.393C687.104 178.833 686.52 179.442 686.062 180.221C685.622 180.982 685.301 181.863 685.098 182.861C684.895 183.843 684.793 184.893 684.793 186.01ZM715.16 178.393V200H707.848V172.527H714.703L715.16 178.393ZM714.094 185.299H712.113C712.113 183.268 712.376 181.439 712.9 179.814C713.425 178.173 714.161 176.776 715.109 175.625C716.057 174.457 717.183 173.568 718.486 172.959C719.807 172.333 721.279 172.02 722.904 172.02C724.191 172.02 725.367 172.206 726.434 172.578C727.5 172.951 728.414 173.543 729.176 174.355C729.954 175.168 730.547 176.243 730.953 177.58C731.376 178.917 731.588 180.551 731.588 182.48V200H724.225V182.455C724.225 181.236 724.055 180.288 723.717 179.611C723.378 178.934 722.879 178.46 722.219 178.189C721.576 177.902 720.78 177.758 719.832 177.758C718.85 177.758 717.995 177.952 717.268 178.342C716.557 178.731 715.964 179.273 715.49 179.967C715.033 180.644 714.686 181.439 714.449 182.354C714.212 183.268 714.094 184.249 714.094 185.299ZM751.977 193.805V181.566C751.977 180.686 751.833 179.933 751.545 179.307C751.257 178.663 750.809 178.164 750.199 177.809C749.607 177.453 748.837 177.275 747.889 177.275C747.076 177.275 746.374 177.419 745.781 177.707C745.189 177.978 744.732 178.376 744.41 178.9C744.089 179.408 743.928 180.009 743.928 180.703H736.615C736.615 179.535 736.886 178.426 737.428 177.377C737.969 176.327 738.757 175.405 739.789 174.609C740.822 173.797 742.049 173.162 743.471 172.705C744.91 172.248 746.518 172.02 748.295 172.02C750.428 172.02 752.324 172.375 753.982 173.086C755.641 173.797 756.945 174.863 757.893 176.285C758.857 177.707 759.34 179.484 759.34 181.617V193.373C759.34 194.88 759.433 196.115 759.619 197.08C759.805 198.028 760.076 198.857 760.432 199.568V200H753.043C752.688 199.255 752.417 198.324 752.23 197.207C752.061 196.073 751.977 194.939 751.977 193.805ZM752.941 183.268L752.992 187.406H748.904C747.939 187.406 747.102 187.516 746.391 187.736C745.68 187.956 745.096 188.27 744.639 188.676C744.182 189.065 743.843 189.522 743.623 190.047C743.42 190.572 743.318 191.147 743.318 191.773C743.318 192.4 743.462 192.967 743.75 193.475C744.038 193.965 744.452 194.355 744.994 194.643C745.536 194.913 746.171 195.049 746.898 195.049C747.999 195.049 748.955 194.829 749.768 194.389C750.58 193.949 751.206 193.407 751.646 192.764C752.104 192.12 752.34 191.511 752.357 190.936L754.287 194.033C754.016 194.727 753.644 195.447 753.17 196.191C752.713 196.936 752.129 197.639 751.418 198.299C750.707 198.942 749.852 199.475 748.854 199.898C747.855 200.305 746.67 200.508 745.299 200.508C743.555 200.508 741.973 200.161 740.551 199.467C739.146 198.756 738.029 197.783 737.199 196.547C736.387 195.294 735.98 193.872 735.98 192.281C735.98 190.842 736.251 189.564 736.793 188.447C737.335 187.33 738.13 186.391 739.18 185.629C740.246 184.85 741.575 184.266 743.166 183.877C744.757 183.471 746.602 183.268 748.701 183.268H752.941ZM772.695 161V200H765.357V161H772.695ZM786.457 172.527V200H779.119V172.527H786.457ZM778.662 165.367C778.662 164.301 779.035 163.421 779.779 162.727C780.524 162.033 781.523 161.686 782.775 161.686C784.011 161.686 785.001 162.033 785.746 162.727C786.508 163.421 786.889 164.301 786.889 165.367C786.889 166.434 786.508 167.314 785.746 168.008C785.001 168.702 784.011 169.049 782.775 169.049C781.523 169.049 780.524 168.702 779.779 168.008C779.035 167.314 778.662 166.434 778.662 165.367ZM814.361 194.287V200H793.49V194.287H814.361ZM813.955 176.742L796.436 200H791.535V195.658L808.979 172.527H813.955V176.742ZM811.365 172.527V178.266H791.941V172.527H811.365ZM833.785 193.805V181.566C833.785 180.686 833.641 179.933 833.354 179.307C833.066 178.663 832.617 178.164 832.008 177.809C831.415 177.453 830.645 177.275 829.697 177.275C828.885 177.275 828.182 177.419 827.59 177.707C826.997 177.978 826.54 178.376 826.219 178.9C825.897 179.408 825.736 180.009 825.736 180.703H818.424C818.424 179.535 818.695 178.426 819.236 177.377C819.778 176.327 820.565 175.405 821.598 174.609C822.63 173.797 823.857 173.162 825.279 172.705C826.718 172.248 828.326 172.02 830.104 172.02C832.236 172.02 834.132 172.375 835.791 173.086C837.45 173.797 838.753 174.863 839.701 176.285C840.666 177.707 841.148 179.484 841.148 181.617V193.373C841.148 194.88 841.242 196.115 841.428 197.08C841.614 198.028 841.885 198.857 842.24 199.568V200H834.852C834.496 199.255 834.225 198.324 834.039 197.207C833.87 196.073 833.785 194.939 833.785 193.805ZM834.75 183.268L834.801 187.406H830.713C829.748 187.406 828.91 187.516 828.199 187.736C827.488 187.956 826.904 188.27 826.447 188.676C825.99 189.065 825.652 189.522 825.432 190.047C825.229 190.572 825.127 191.147 825.127 191.773C825.127 192.4 825.271 192.967 825.559 193.475C825.846 193.965 826.261 194.355 826.803 194.643C827.344 194.913 827.979 195.049 828.707 195.049C829.807 195.049 830.764 194.829 831.576 194.389C832.389 193.949 833.015 193.407 833.455 192.764C833.912 192.12 834.149 191.511 834.166 190.936L836.096 194.033C835.825 194.727 835.452 195.447 834.979 196.191C834.521 196.936 833.938 197.639 833.227 198.299C832.516 198.942 831.661 199.475 830.662 199.898C829.663 200.305 828.479 200.508 827.107 200.508C825.364 200.508 823.781 200.161 822.359 199.467C820.954 198.756 819.837 197.783 819.008 196.547C818.195 195.294 817.789 193.872 817.789 192.281C817.789 190.842 818.06 189.564 818.602 188.447C819.143 187.33 819.939 186.391 820.988 185.629C822.055 184.85 823.383 184.266 824.975 183.877C826.566 183.471 828.411 183.268 830.51 183.268H834.75ZM854.098 178.52V200H846.785V172.527H853.666L854.098 178.52ZM862.375 172.35L862.248 179.129C861.893 179.078 861.461 179.036 860.953 179.002C860.462 178.951 860.014 178.926 859.607 178.926C858.575 178.926 857.678 179.061 856.916 179.332C856.171 179.586 855.545 179.967 855.037 180.475C854.546 180.982 854.174 181.6 853.92 182.328C853.683 183.056 853.548 183.885 853.514 184.816L852.041 184.359C852.041 182.582 852.219 180.949 852.574 179.459C852.93 177.952 853.446 176.641 854.123 175.523C854.817 174.406 855.663 173.543 856.662 172.934C857.661 172.324 858.803 172.02 860.09 172.02C860.496 172.02 860.911 172.053 861.334 172.121C861.757 172.172 862.104 172.248 862.375 172.35Z" fill="white"/>
<path d="M460.117 311.648C460.117 310.518 459.789 309.497 459.133 308.586C458.477 307.674 457.255 306.836 455.469 306.07C453.719 305.268 451.185 304.539 447.867 303.883C444.878 303.227 442.089 302.406 439.5 301.422C436.948 300.401 434.724 299.18 432.828 297.758C430.969 296.336 429.51 294.659 428.453 292.727C427.396 290.758 426.867 288.516 426.867 286C426.867 283.521 427.396 281.188 428.453 279C429.547 276.812 431.096 274.88 433.102 273.203C435.143 271.49 437.622 270.159 440.539 269.211C443.492 268.227 446.81 267.734 450.492 267.734C455.633 267.734 460.044 268.555 463.727 270.195C467.445 271.836 470.289 274.096 472.258 276.977C474.263 279.82 475.266 283.065 475.266 286.711H459.516C459.516 285.18 459.188 283.812 458.531 282.609C457.911 281.37 456.927 280.404 455.578 279.711C454.266 278.982 452.552 278.617 450.438 278.617C448.688 278.617 447.174 278.927 445.898 279.547C444.622 280.13 443.638 280.932 442.945 281.953C442.289 282.938 441.961 284.031 441.961 285.234C441.961 286.146 442.143 286.966 442.508 287.695C442.909 288.388 443.547 289.026 444.422 289.609C445.297 290.193 446.427 290.74 447.812 291.25C449.234 291.724 450.984 292.161 453.062 292.562C457.328 293.438 461.138 294.586 464.492 296.008C467.846 297.393 470.508 299.289 472.477 301.695C474.445 304.065 475.43 307.182 475.43 311.047C475.43 313.672 474.846 316.078 473.68 318.266C472.513 320.453 470.836 322.367 468.648 324.008C466.461 325.612 463.836 326.87 460.773 327.781C457.747 328.656 454.339 329.094 450.547 329.094C445.042 329.094 440.375 328.109 436.547 326.141C432.755 324.172 429.875 321.674 427.906 318.648C425.974 315.586 425.008 312.451 425.008 309.242H439.938C440.01 311.393 440.557 313.125 441.578 314.438C442.635 315.75 443.966 316.698 445.57 317.281C447.211 317.865 448.979 318.156 450.875 318.156C452.917 318.156 454.612 317.883 455.961 317.336C457.31 316.753 458.331 315.987 459.023 315.039C459.753 314.055 460.117 312.924 460.117 311.648ZM510.102 316.789C512.034 316.789 513.747 316.424 515.242 315.695C516.737 314.93 517.904 313.872 518.742 312.523C519.617 311.138 520.073 309.516 520.109 307.656H534.93C534.893 311.812 533.781 315.513 531.594 318.758C529.406 321.966 526.471 324.5 522.789 326.359C519.107 328.182 514.987 329.094 510.43 329.094C505.836 329.094 501.826 328.328 498.398 326.797C495.008 325.266 492.182 323.151 489.922 320.453C487.661 317.719 485.966 314.547 484.836 310.938C483.706 307.292 483.141 303.391 483.141 299.234V297.648C483.141 293.456 483.706 289.555 484.836 285.945C485.966 282.299 487.661 279.128 489.922 276.43C492.182 273.695 495.008 271.562 498.398 270.031C501.789 268.5 505.763 267.734 510.32 267.734C515.169 267.734 519.417 268.664 523.062 270.523C526.745 272.383 529.625 275.044 531.703 278.508C533.818 281.935 534.893 286 534.93 290.703H520.109C520.073 288.734 519.654 286.948 518.852 285.344C518.086 283.74 516.956 282.464 515.461 281.516C514.003 280.531 512.198 280.039 510.047 280.039C507.75 280.039 505.872 280.531 504.414 281.516C502.956 282.464 501.826 283.776 501.023 285.453C500.221 287.094 499.656 288.971 499.328 291.086C499.036 293.164 498.891 295.352 498.891 297.648V299.234C498.891 301.531 499.036 303.737 499.328 305.852C499.62 307.966 500.167 309.844 500.969 311.484C501.807 313.125 502.956 314.419 504.414 315.367C505.872 316.315 507.768 316.789 510.102 316.789ZM559.812 281.734V328H544.062V268.828H558.883L559.812 281.734ZM577.641 268.445L577.367 283.047C576.602 282.938 575.672 282.846 574.578 282.773C573.521 282.664 572.555 282.609 571.68 282.609C569.456 282.609 567.523 282.901 565.883 283.484C564.279 284.031 562.93 284.852 561.836 285.945C560.779 287.039 559.977 288.37 559.43 289.938C558.919 291.505 558.628 293.292 558.555 295.297L555.383 294.312C555.383 290.484 555.766 286.966 556.531 283.758C557.297 280.513 558.409 277.688 559.867 275.281C561.362 272.875 563.185 271.016 565.336 269.703C567.487 268.391 569.948 267.734 572.719 267.734C573.594 267.734 574.487 267.807 575.398 267.953C576.31 268.062 577.057 268.227 577.641 268.445ZM580.922 299.016V297.867C580.922 293.529 581.542 289.536 582.781 285.891C584.021 282.208 585.826 279.018 588.195 276.32C590.565 273.622 593.482 271.526 596.945 270.031C600.409 268.5 604.383 267.734 608.867 267.734C613.352 267.734 617.344 268.5 620.844 270.031C624.344 271.526 627.279 273.622 629.648 276.32C632.055 279.018 633.878 282.208 635.117 285.891C636.357 289.536 636.977 293.529 636.977 297.867V299.016C636.977 303.318 636.357 307.31 635.117 310.992C633.878 314.638 632.055 317.828 629.648 320.562C627.279 323.26 624.362 325.357 620.898 326.852C617.435 328.346 613.461 329.094 608.977 329.094C604.492 329.094 600.5 328.346 597 326.852C593.536 325.357 590.602 323.26 588.195 320.562C585.826 317.828 584.021 314.638 582.781 310.992C581.542 307.31 580.922 303.318 580.922 299.016ZM596.672 297.867V299.016C596.672 301.495 596.891 303.81 597.328 305.961C597.766 308.112 598.458 310.008 599.406 311.648C600.391 313.253 601.667 314.51 603.234 315.422C604.802 316.333 606.716 316.789 608.977 316.789C611.164 316.789 613.042 316.333 614.609 315.422C616.177 314.51 617.435 313.253 618.383 311.648C619.331 310.008 620.023 308.112 620.461 305.961C620.935 303.81 621.172 301.495 621.172 299.016V297.867C621.172 295.461 620.935 293.201 620.461 291.086C620.023 288.935 619.312 287.039 618.328 285.398C617.38 283.721 616.122 282.409 614.555 281.461C612.987 280.513 611.091 280.039 608.867 280.039C606.643 280.039 604.747 280.513 603.18 281.461C601.648 282.409 600.391 283.721 599.406 285.398C598.458 287.039 597.766 288.935 597.328 291.086C596.891 293.201 596.672 295.461 596.672 297.867ZM663.281 244V328H647.477V244H663.281ZM692.922 244V328H677.117V244H692.922ZM705.938 244H721.688V314.438L720.102 328H705.938V244ZM759.148 297.812V298.961C759.148 303.372 758.674 307.419 757.727 311.102C756.815 314.784 755.393 317.974 753.461 320.672C751.529 323.333 749.122 325.411 746.242 326.906C743.398 328.365 740.044 329.094 736.18 329.094C732.57 329.094 729.435 328.365 726.773 326.906C724.148 325.448 721.943 323.388 720.156 320.727C718.37 318.065 716.93 314.948 715.836 311.375C714.742 307.802 713.922 303.901 713.375 299.672V297.156C713.922 292.927 714.742 289.026 715.836 285.453C716.93 281.88 718.37 278.763 720.156 276.102C721.943 273.44 724.148 271.38 726.773 269.922C729.398 268.464 732.497 267.734 736.07 267.734C739.971 267.734 743.362 268.482 746.242 269.977C749.159 271.435 751.565 273.513 753.461 276.211C755.393 278.872 756.815 282.044 757.727 285.727C758.674 289.372 759.148 293.401 759.148 297.812ZM743.398 298.961V297.812C743.398 295.406 743.216 293.146 742.852 291.031C742.523 288.88 741.94 287.003 741.102 285.398C740.263 283.758 739.115 282.464 737.656 281.516C736.234 280.568 734.393 280.094 732.133 280.094C729.982 280.094 728.159 280.458 726.664 281.188C725.169 281.917 723.93 282.938 722.945 284.25C721.997 285.562 721.286 287.13 720.812 288.953C720.339 290.74 720.047 292.708 719.938 294.859V302.023C720.047 304.904 720.521 307.456 721.359 309.68C722.234 311.867 723.547 313.599 725.297 314.875C727.083 316.115 729.398 316.734 732.242 316.734C734.466 316.734 736.307 316.297 737.766 315.422C739.224 314.547 740.354 313.307 741.156 311.703C741.995 310.099 742.578 308.221 742.906 306.07C743.234 303.883 743.398 301.513 743.398 298.961ZM800.875 314.656V288.297C800.875 286.401 800.565 284.779 799.945 283.43C799.326 282.044 798.359 280.969 797.047 280.203C795.771 279.438 794.112 279.055 792.07 279.055C790.32 279.055 788.807 279.365 787.531 279.984C786.255 280.568 785.271 281.424 784.578 282.555C783.885 283.648 783.539 284.943 783.539 286.438H767.789C767.789 283.922 768.372 281.534 769.539 279.273C770.706 277.013 772.401 275.026 774.625 273.312C776.849 271.562 779.492 270.195 782.555 269.211C785.654 268.227 789.117 267.734 792.945 267.734C797.539 267.734 801.622 268.5 805.195 270.031C808.768 271.562 811.576 273.859 813.617 276.922C815.695 279.984 816.734 283.812 816.734 288.406V313.727C816.734 316.971 816.935 319.633 817.336 321.711C817.737 323.753 818.32 325.539 819.086 327.07V328H803.172C802.406 326.396 801.823 324.391 801.422 321.984C801.057 319.542 800.875 317.099 800.875 314.656ZM802.953 291.961L803.062 300.875H794.258C792.18 300.875 790.375 301.112 788.844 301.586C787.312 302.06 786.055 302.734 785.07 303.609C784.086 304.448 783.357 305.432 782.883 306.562C782.445 307.693 782.227 308.932 782.227 310.281C782.227 311.63 782.536 312.852 783.156 313.945C783.776 315.003 784.669 315.841 785.836 316.461C787.003 317.044 788.37 317.336 789.938 317.336C792.307 317.336 794.367 316.862 796.117 315.914C797.867 314.966 799.216 313.799 800.164 312.414C801.148 311.029 801.659 309.716 801.695 308.477L805.852 315.148C805.268 316.643 804.466 318.193 803.445 319.797C802.461 321.401 801.203 322.914 799.672 324.336C798.141 325.721 796.299 326.87 794.148 327.781C791.997 328.656 789.445 329.094 786.492 329.094C782.737 329.094 779.328 328.346 776.266 326.852C773.24 325.32 770.833 323.224 769.047 320.562C767.297 317.865 766.422 314.802 766.422 311.375C766.422 308.276 767.005 305.523 768.172 303.117C769.339 300.711 771.052 298.688 773.312 297.047C775.609 295.37 778.471 294.112 781.898 293.273C785.326 292.398 789.299 291.961 793.82 291.961H802.953ZM844.625 281.734V328H828.875V268.828H843.695L844.625 281.734ZM862.453 268.445L862.18 283.047C861.414 282.938 860.484 282.846 859.391 282.773C858.333 282.664 857.367 282.609 856.492 282.609C854.268 282.609 852.336 282.901 850.695 283.484C849.091 284.031 847.742 284.852 846.648 285.945C845.591 287.039 844.789 288.37 844.242 289.938C843.732 291.505 843.44 293.292 843.367 295.297L840.195 294.312C840.195 290.484 840.578 286.966 841.344 283.758C842.109 280.513 843.221 277.688 844.68 275.281C846.174 272.875 847.997 271.016 850.148 269.703C852.299 268.391 854.76 267.734 857.531 267.734C858.406 267.734 859.299 267.807 860.211 267.953C861.122 268.062 861.87 268.227 862.453 268.445Z" fill="white"/>
<rect x="60" y="66" width="334" height="377" rx="20" fill="#343434"/>
<rect x="355" y="66" width="39" height="377" rx="19.5" fill="#201F1F"/>
<rect x="363" y="75" width="23" height="110" rx="11.5" fill="#9B9B9B"/>
<rect x="84" y="95" width="255" height="41" rx="11" fill="#D9D9D9"/>
<rect x="84" y="165" width="255" height="41" rx="11" fill="#D9D9D9"/>
<rect x="84" y="235" width="255" height="41" rx="11" fill="#D9D9D9"/>
<rect x="84" y="305" width="255" height="41" rx="11" fill="#D9D9D9"/>
<rect x="84" y="375" width="255" height="41" rx="11" fill="#D9D9D9"/>
</svg>
