<svg width="900" height="507" viewBox="0 0 900 507" fill="none" xmlns="http://www.w3.org/2000/svg">
<rect width="900" height="507" fill="#4D4D4D"/>
<path fill-rule="evenodd" clip-rule="evenodd" d="M521 253.5C521 162.097 595.097 88 686.5 88C777.902 88 852 162.097 852 253.5C852 310.586 823.097 360.923 779.125 390.673L629.278 180.888C626.49 176.985 621.5 175.33 616.933 176.794C612.365 178.258 609.267 182.504 609.267 187.301V352.8H631.333V221.73L759.98 401.834C737.841 412.824 712.892 419 686.5 419C595.097 419 521 344.902 521 253.5ZM741.667 308.667V176.267H763.733V308.667H741.667Z" fill="#0072F5"/>
<path d="M445.091 284.636V224.636H455.273V284.636H445.091ZM420.182 259.727V249.545H480.182V259.727H420.182Z" fill="white"/>
<path d="M213.5 224C209.626 224 205.79 224.763 202.211 226.245C198.632 227.728 195.379 229.901 192.64 232.64C189.901 235.38 187.728 238.632 186.245 242.211C184.763 245.79 184 249.626 184 253.5C184 257.374 184.763 261.21 186.245 264.789C187.728 268.369 189.901 271.621 192.64 274.36C195.379 277.099 198.632 279.272 202.211 280.755C205.79 282.237 209.626 283.001 213.5 283.001C217.374 283.001 221.21 282.237 224.789 280.755C228.368 279.272 231.621 277.099 234.36 274.36C237.099 271.621 239.272 268.369 240.755 264.789C242.237 261.21 243 257.374 243 253.5C243 249.626 242.237 245.79 240.755 242.211C239.272 238.632 237.099 235.38 234.36 232.64C231.621 229.901 228.368 227.728 224.789 226.245C221.21 224.763 217.374 224 213.5 224ZM130.86 312.184L124.351 310.529C75.8316 298.268 48 277.456 48 253.445C48 229.434 75.8316 208.622 124.351 196.361L130.86 194.72L132.695 201.175C137.61 218.107 143.897 234.61 151.493 250.521L152.886 253.459L151.493 256.396C143.884 272.302 137.597 288.806 132.695 305.743L130.86 312.184ZM121.33 211.436C84.4514 221.793 61.8192 237.64 61.8192 253.445C61.8192 269.236 84.4514 285.083 121.33 295.454C125.841 281.11 131.286 267.077 137.632 253.445C131.279 239.816 125.833 225.782 121.33 211.436V211.436ZM296.14 312.184L294.305 305.715C289.395 288.784 283.103 272.284 275.494 256.383L274.101 253.445L275.494 250.507C283.101 234.6 289.392 218.096 294.305 201.161L296.14 194.706L302.663 196.347C351.168 208.608 379 229.42 379 253.445C379 277.47 351.168 298.268 302.663 310.529L296.14 312.184V312.184ZM289.368 253.445C295.988 267.775 301.463 281.856 305.67 295.454C342.562 285.083 365.181 269.236 365.181 253.445C365.181 237.64 342.549 221.807 305.67 211.436C301.166 225.782 295.72 239.816 289.368 253.445V253.445ZM121.234 211.367L119.399 204.926C105.76 156.848 109.897 122.397 130.75 110.37C151.203 98.5645 184.041 112.508 218.451 147.828L223.14 152.642L218.451 157.455C206.224 170.165 195.053 183.851 185.048 198.375L183.186 201.037L179.945 201.312C162.345 202.7 144.888 205.513 127.743 209.725L121.234 211.367V211.367ZM147.383 119.928C143.687 119.928 140.418 120.728 137.66 122.314C123.951 130.216 121.523 157.689 130.971 194.761C145.668 191.492 160.562 189.184 175.559 187.852C184.212 175.548 193.666 163.827 203.86 152.766C182.345 131.816 161.974 119.928 147.383 119.928V119.928ZM279.631 400.754C279.617 400.754 279.617 400.754 279.631 400.754C259.978 400.754 234.739 385.955 208.549 359.062L203.86 354.248L208.549 349.435C220.773 336.72 231.939 323.031 241.938 308.501L243.8 305.84L247.028 305.564C264.636 304.184 282.103 301.375 299.257 297.165L305.766 295.523L307.614 301.978C321.227 350.028 317.103 384.493 296.25 396.506C291.185 399.37 285.449 400.836 279.631 400.754V400.754ZM223.14 354.124C244.655 375.074 265.026 386.962 279.617 386.962H279.631C283.313 386.962 286.596 386.162 289.34 384.576C303.049 376.674 305.49 349.187 296.029 312.115C281.329 315.389 266.429 317.697 251.427 319.024C242.784 331.337 233.335 343.062 223.14 354.124V354.124ZM305.766 211.367L299.257 209.725C282.106 205.501 264.638 202.688 247.028 201.312L243.8 201.037L241.938 198.375C231.945 183.846 220.777 170.16 208.549 157.455L203.86 152.642L208.549 147.828C242.945 112.522 275.769 98.5783 296.25 110.37C317.103 122.397 321.24 156.848 307.614 204.912L305.766 211.367ZM251.427 187.852C267.177 189.286 282.141 191.617 296.029 194.761C305.49 157.689 303.049 130.216 289.34 122.314C275.714 114.439 250.103 126.506 223.14 152.766C233.329 163.828 242.778 175.548 251.427 187.852V187.852ZM147.383 400.754C141.56 400.838 135.819 399.372 130.75 396.506C109.897 384.493 105.76 350.042 119.399 301.978L121.22 295.523L127.73 297.165C143.659 301.178 161.23 304.005 179.931 305.564L183.172 305.84L185.02 308.501C195.027 323.029 206.198 336.718 218.424 349.435L223.113 354.248L218.424 359.062C192.247 385.955 167.008 400.754 147.383 400.754V400.754ZM130.971 312.115C121.51 349.187 123.951 376.674 137.66 384.576C151.272 392.341 176.869 380.37 203.86 354.124C193.67 343.054 184.217 331.329 175.559 319.024C160.561 317.698 145.667 315.39 130.971 312.115V312.115ZM213.5 320.776C202.149 320.776 190.482 320.279 178.8 319.314L175.559 319.038L173.697 316.376C167.09 306.882 160.878 297.118 155.079 287.11C149.296 277.094 143.931 266.843 138.997 256.383L137.618 253.445L138.997 250.507C143.93 240.047 149.295 229.795 155.079 219.78C160.788 209.905 167.063 200.057 173.697 190.514L175.559 187.852L178.8 187.576C201.897 185.618 225.117 185.618 248.214 187.576L251.441 187.852L253.289 190.514C266.517 209.506 278.129 229.574 288.003 250.507L289.396 253.445L288.003 256.383C278.153 277.328 266.54 297.399 253.289 316.376L251.441 319.038L248.214 319.314C236.532 320.279 224.851 320.776 213.5 320.776V320.776ZM183.2 305.826C203.611 307.357 223.389 307.357 243.814 305.826C255.217 289.155 265.342 271.645 274.101 253.445C265.357 235.234 255.227 217.722 243.8 201.064C223.629 199.533 203.371 199.533 183.2 201.064C171.768 217.719 161.637 235.231 152.899 253.445C161.668 271.643 171.796 289.152 183.2 305.826V305.826Z" fill="#0072F5"/>
</svg>
