<svg width="50" height="50" viewBox="0 0 50 50" fill="none" xmlns="http://www.w3.org/2000/svg">
<path d="M11.6387 16.0856H1.60113C1.15565 16.0856 0.794678 16.4467 0.794678 16.892V49.1385C0.794678 49.584 1.15565 49.9449 1.60113 49.9449H11.6387C12.0842 49.9449 12.4452 49.584 12.4452 49.1385V16.892C12.4452 16.4467 12.0842 16.0856 11.6387 16.0856Z" fill="#FAFAFA"/>
<path d="M6.62355 0.0550537C2.97129 0.0550537 0 3.02312 0 6.67134C0 10.3212 2.97129 13.2904 6.62355 13.2904C10.2729 13.2904 13.2418 10.321 13.2418 6.67134C13.2419 3.02312 10.2729 0.0550537 6.62355 0.0550537Z" fill="#FAFAFA"/>
<path d="M37.17 15.2841C33.1385 15.2841 30.1584 17.0171 28.3508 18.9863V16.892C28.3508 16.4466 27.9898 16.0855 27.5443 16.0855H17.9316C17.4861 16.0855 17.1252 16.4466 17.1252 16.892V49.1384C17.1252 49.5839 17.4861 49.9449 17.9316 49.9449H27.9472C28.3927 49.9449 28.7537 49.5839 28.7537 49.1384V33.1839C28.7537 27.8076 30.214 25.7131 33.9618 25.7131C38.0434 25.7131 38.3677 29.0708 38.3677 33.4605V49.1386C38.3677 49.5841 38.7287 49.945 39.1742 49.945H49.1935C49.639 49.945 50 49.5841 50 49.1386V31.4508C50 23.4565 48.4756 15.2841 37.17 15.2841Z" fill="#FAFAFA"/>
</svg>
