<svg width="65" height="65" viewBox="0 0 65 65" fill="none" xmlns="http://www.w3.org/2000/svg">
<path d="M23.0208 5.41663C18.5335 5.41663 14.8958 9.05432 14.8958 13.5416C14.8958 18.0289 18.5335 21.6666 23.0208 21.6666H41.9792C46.4666 21.6666 50.1042 18.0289 50.1042 13.5416C50.1042 9.05432 46.4666 5.41663 41.9792 5.41663H23.0208Z" fill="#0072F5"/>
<path d="M41.9792 24.375C37.4917 24.375 33.8542 28.0126 33.8542 32.5C33.8542 36.9874 37.4917 40.625 41.9792 40.625C46.4666 40.625 50.1042 36.9874 50.1042 32.5C50.1042 28.0126 46.4666 24.375 41.9792 24.375Z" fill="#0072F5"/>
<path d="M14.8958 32.5C14.8958 28.0126 18.5335 24.375 23.0208 24.375H31.1458V40.625H23.0208C18.5335 40.625 14.8958 36.9874 14.8958 32.5Z" fill="#0072F5"/>
<path d="M23.0208 43.3334C18.5335 43.3334 14.8958 46.9709 14.8958 51.4584C14.8958 55.9458 18.5335 59.5834 23.0208 59.5834C27.5083 59.5834 31.1458 55.9458 31.1458 51.4584V43.3334H23.0208Z" fill="#0072F5"/>
</svg>
