<svg width="65" height="74" viewBox="0 0 65 74" fill="none" xmlns="http://www.w3.org/2000/svg">
<path d="M14.5945 48.3081C21.6415 48.7865 23.1475 48.6131 23.1475 50.0338C23.1475 52.9245 13.6369 52.9331 13.6369 50.2535C13.6384 49.5179 14.1143 48.8949 14.5945 48.3081V48.3081ZM18.6498 31.45C13.9648 31.45 13.753 37.8773 18.541 37.8773C23.2578 37.8773 23.1417 31.45 18.6498 31.45V31.45ZM65 11.5625V62.4375C65 64.2774 64.2663 66.042 62.9602 67.3431C61.6542 68.6441 59.8828 69.375 58.0357 69.375H6.96429C5.11724 69.375 3.34585 68.6441 2.03979 67.3431C0.733735 66.042 0 64.2774 0 62.4375L0 11.5625C0 9.72256 0.733735 7.95798 2.03979 6.65695C3.34585 5.35591 5.11724 4.625 6.96429 4.625H58.0357C59.8828 4.625 61.6542 5.35591 62.9602 6.65695C64.2663 7.95798 65 9.72256 65 11.5625V11.5625ZM32.0647 21.58C32.0647 23.6742 33.2806 24.8868 35.3815 24.8868C37.5201 24.8868 38.7374 23.6742 38.7374 21.58C38.7374 19.4857 37.523 18.3555 35.3844 18.3555C33.2835 18.3555 32.0647 19.4886 32.0647 21.58ZM28.8989 28.1836H21.7097C18.0825 27.2369 9.87623 27.4826 9.87623 34.9404C9.87623 37.6576 11.2401 39.5654 13.0464 40.4485C10.77 42.5254 9.69196 43.5039 9.69196 44.8914C9.69196 45.8843 10.0968 46.8021 11.3141 47.3137C10.0228 48.5278 9.28281 49.4066 9.28281 51.06C9.28571 53.9607 11.8291 55.6445 18.5018 55.6445C24.9176 55.6445 28.6392 53.2583 28.6392 49.0351C28.6392 43.7352 24.5433 43.9303 14.8891 43.3435L16.1049 41.4024C18.5714 42.0875 26.8691 42.3029 26.8691 35.27C26.8691 33.5804 26.1683 32.4054 25.5052 31.5598L28.8974 31.3026L28.8989 28.1836ZM41.1357 44.0589L39.2496 43.8016C38.6953 43.7279 38.659 43.6571 38.659 43.066V27.8252H31.0273L30.6225 30.7982C32.9077 31.6003 33.0891 31.5006 33.0891 32.268V43.0703C33.0891 43.8826 33.0441 43.7323 30.6225 44.0632V46.9625H41.1299L41.1357 44.0589ZM55.7143 45.5273L54.7175 42.2942C48.779 44.5156 49.2259 40.5005 49.2259 39.8762V31.1002H54.7175V27.4277H49.5204C49.104 27.4277 49.2302 27.7919 49.2302 21.8445H45.722C45.3172 25.848 44.0273 27.4638 40.789 27.8309V31.1002C43.7589 31.1002 43.6646 30.9774 43.6646 31.4673V41.0888C43.6646 45.2397 45.323 47.0016 49.7105 47.0016C51.807 47.0016 54.1285 46.3035 55.7143 45.5273V45.5273Z" fill="#0072F5"/>
</svg>
